CheltenhamClassic.glyphspackage
{
glyphname = exclam;
layers = (
{
hints = (
{
horizontal = 1;
place = (-6,134);
type = Stem;
},
{
place = (86,87);
type = Stem;
}
);
layerId = "0245B36C-B88E-4C5F-8D6F-F0580B5CC529";
shapes = (
{
closed = 1;
nodes = (
(213,701,o),
(195,741,o),
(147,741,cs),
(102,741,o),
(83,701,o),
(83,661,cs),
(83,600,o),
(100,554,o),
(113,453,cs),
(125,362,o),
(125,277,o),
(128,211,c),
(128,206,o),
(136,200,o),
(148,200,cs),
(161,200,o),
(169,206,o),
(169,211,c),
(172,276,o),
(172,362,o),
(184,453,cs),
(197,554,o),
(213,599,o),
(213,661,cs)
);
},
{
closed = 1;
nodes = (
(216,97,o),
(186,127,o),
(147,127,cs),
(109,127,o),
(80,97,o),
(80,61,cs),
(80,24,o),
(109,-6,o),
(147,-6,cs),
(186,-6,o),
(216,24,o),
(216,61,cs)
);
}
);
width = 297;
}
);
unicode = 33;
}
{
glyphname = numbersign;
layers = (
{
hints = (
{
horizontal = 1;
place = (-9,20);
type = Stem;
},
{
horizontal = 1;
place = (184,87);
type = Stem;
},
{
horizontal = 1;
place = (417,87);
type = Stem;
}
);
layerId = "0245B36C-B88E-4C5F-8D6F-F0580B5CC529";
shapes = (
{
closed = 1;
nodes = (
(540,504,l),
(569,685,l),
(524,685,l),
(495,504,l),
(360,504,l),
(389,685,l),
(344,685,l),
(315,504,l),
(141,504,l),
(127,418,l),
(301,418,l),
(277,270,l),
(105,270,l),
(91,184,l),
(263,184,l),
(231,-9,l),
(277,-9,l),
(308,184,l),
(443,184,l),
(412,-9,l),
(457,-9,l),
(488,184,l),
(663,184,l),
(677,270,l),
(503,270,l),
(526,418,l),
(699,418,l),
(713,504,l)
);
},
{
closed = 1;
nodes = (
(457,270,l),
(322,270,l),
(346,418,l),
(481,418,l)
);
}
);
width = 802;
}
);
unicode = 35;
}
{
glyphname = dollar;
layers = (
{
hints = (
{
horizontal = 1;
place = (-8,49);
type = Stem;
},
{
horizontal = 1;
place = (640,49);
type = Stem;
},
{
place = (38,128);
type = Stem;
},
{
place = (276,42);
type = Stem;
},
{
place = (382,121);
type = Stem;
}
);
layerId = "0245B36C-B88E-4C5F-8D6F-F0580B5CC529";
shapes = (
{
closed = 1;
nodes = (
(527,272,o),
(481,323,o),
(410,359,cs),
(374,377,o),
(342,389,o),
(314,400,c),
(314,643,l),
(378,638,o),
(401,615,o),
(418,600,c),
(397,587,o),
(383,574,o),
(383,548,cs),
(383,517,o),
(414,500,o),
(442,500,cs),
(470,500,o),
(499,519,o),
(499,561,cs),
(499,611,o),
(448,682,o),
(314,689,c),
(314,740,l),
(268,740,l),
(268,688,l),
(149,678,o),
(68,603,o),
(68,503,cs),
(68,412,o),
(144,364,o),
(206,336,cs),
(224,328,o),
(246,320,o),
(268,311,c),
(268,38,l),
(190,41,o),
(148,68,o),
(118,93,c),
(154,110,o),
(166,132,o),
(166,157,cs),
(166,185,o),
(146,212,o),
(104,212,cs),
(69,212,o),
(34,191,o),
(34,142,cs),
(34,76,o),
(106,-3,o),
(268,-8,c),
(268,-136,l),
(314,-136,l),
(314,-6,l),
(448,5,o),
(527,96,o),
(527,197,cs)
);
},
{
closed = 1;
nodes = (
(268,415,l),
(259,419,o),
(249,423,o),
(240,427,cs),
(175,460,o),
(162,499,o),
(162,546,cs),
(162,589,o),
(202,635,o),
(268,643,c)
);
},
{
closed = 1;
nodes = (
(432,107,o),
(392,53,o),
(314,41,c),
(314,298,l),
(321,295,o),
(332,291,o),
(339,288,cs),
(431,248,o),
(432,187,o),
(432,159,cs)
);
}
);
width = 564;
}
);
unicode = 36;
}
{
glyphname = percent;
layers = (
{
hints = (
{
horizontal = 1;
place = (-6,43);
type = Stem;
},
{
horizontal = 1;
place = (328,43);
type = Stem;
},
{
horizontal = 1;
place = (685,43);
type = Stem;
},
{
place = (64,87);
type = Stem;
},
{
place = (311,87);
type = Stem;
},
{
place = (508,87);
type = Stem;
},
{
place = (755,87);
type = Stem;
}
);
layerId = "0245B36C-B88E-4C5F-8D6F-F0580B5CC529";
shapes = (
{
closed = 1;
nodes = (
(838,313,o),
(766,394,o),
(672,394,cs),
(578,394,o),
(506,313,o),
(506,194,cs),
(506,75,o),
(579,-6,o),
(672,-6,cs),
(765,-6,o),
(838,75,o),
(838,194,cs)
);
},
{
closed = 1;
nodes = (
(629,733,l),
(209,-10,l),
(269,-10,l),
(689,733,l)
);
},
{
closed = 1;
nodes = (
(392,647,o),
(320,728,o),
(226,728,cs),
(132,728,o),
(60,647,o),
(60,528,cs),
(60,409,o),
(133,328,o),
(226,328,cs),
(319,328,o),
(392,409,o),
(392,528,cs)
);
},
{
closed = 1;
nodes = (
(753,80,o),
(723,37,o),
(672,37,cs),
(620,37,o),
(591,81,o),
(591,194,cs),
(591,307,o),
(620,351,o),
(672,351,cs),
(724,351,o),
(753,307,o),
(753,194,cs)
);
},
{
closed = 1;
nodes = (
(307,414,o),
(277,371,o),
(226,371,cs),
(174,371,o),
(145,415,o),
(145,528,cs),
(145,641,o),
(174,685,o),
(226,685,cs),
(278,685,o),
(307,641,o),
(307,528,cs)
);
}
);
width = 894;
}
);
unicode = 37;
}
{
glyphname = ampersand;
layers = (
{
hints = (
{
horizontal = 1;
place = (-10,71);
type = Stem;
},
{
horizontal = 1;
place = (691,49);
type = Stem;
},
{
place = (36,109);
type = Stem;
},
{
place = (194,96);
type = Stem;
},
{
place = (468,87);
type = Stem;
}
);
layerId = "0245B36C-B88E-4C5F-8D6F-F0580B5CC529";
shapes = (
{
closed = 1;
nodes = (
(785,75,l),
(760,62,o),
(725,50,o),
(697,50,cs),
(643,50,o),
(596,77,o),
(546,132,c),
(585,171,o),
(618,215,o),
(646,258,cs),
(693,329,o),
(704,329,o),
(741,342,cs),
(761,349,o),
(779,354,o),
(779,369,cs),
(779,391,l),
(528,391,l),
(528,369,ls),
(528,359,o),
(535,358,o),
(558,348,cs),
(598,331,o),
(603,326,o),
(603,305,cs),
(603,284,o),
(567,219,o),
(518,165,c),
(488,201,o),
(457,246,o),
(424,299,cs),
(397,342,o),
(375,380,o),
(355,415,c),
(477,453,o),
(551,512,o),
(551,600,cs),
(551,663,o),
(498,740,o),
(383,740,cs),
(261,740,o),
(190,665,o),
(190,578,cs),
(190,532,o),
(211,476,o),
(237,422,c),
(105,365,o),
(32,286,o),
(32,190,cs),
(32,86,o),
(107,-10,o),
(269,-10,cs),
(344,-10,o),
(413,22,o),
(477,70,c),
(529,21,o),
(584,-10,o),
(649,-10,cs),
(727,-10,o),
(765,9,o),
(805,35,c)
);
},
{
closed = 1;
nodes = (
(464,572,o),
(456,498,o),
(334,452,c),
(304,507,o),
(289,557,o),
(289,610,cs),
(289,661,o),
(323,695,o),
(376,695,cs),
(422,695,o),
(464,665,o),
(464,600,cs)
);
},
{
closed = 1;
nodes = (
(405,78,o),
(362,61,o),
(314,61,cs),
(199,61,o),
(141,132,o),
(141,225,cs),
(141,282,o),
(169,335,o),
(256,383,c),
(282,336,o),
(309,292,o),
(332,257,cs),
(369,200,o),
(407,147,o),
(444,103,c)
);
}
);
width = 802;
}
);
unicode = 38;
}
{
glyphname = quotesingle;
layers = (
{
hints = (
{
horizontal = 1;
place = (447,293);
type = Stem;
},
{
place = (70,109);
type = Stem;
}
);
layerId = "0245B36C-B88E-4C5F-8D6F-F0580B5CC529";
shapes = (
{
closed = 1;
nodes = (
(178,717,o),
(158,740,o),
(122,740,cs),
(87,740,o),
(66,717,o),
(66,685,cs),
(66,648,o),
(91,543,o),
(107,454,c),
(110,450,o),
(115,447,o),
(122,447,cs),
(131,447,o),
(134,450,o),
(137,454,c),
(154,545,o),
(178,648,o),
(178,685,cs)
);
}
);
width = 244;
}
);
unicode = 39;
}
{
glyphname = parenleft;
layers = (
{
hints = (
{
place = (57,109);
type = Stem;
}
);
layerId = "0245B36C-B88E-4C5F-8D6F-F0580B5CC529";
shapes = (
{
closed = 1;
nodes = (
(339,-160,l),
(220,-63,o),
(157,87,o),
(157,276,cs),
(157,458,o),
(222,618,o),
(339,711,c),
(308,740,l),
(162,631,o),
(53,455,o),
(53,276,cs),
(53,92,o),
(167,-84,o),
(308,-189,c)
);
}
);
width = 357;
}
);
unicode = 40;
}
{
glyphname = parenright;
layers = (
{
hints = (
{
place = (205,103);
type = Stem;
}
);
layerId = "0245B36C-B88E-4C5F-8D6F-F0580B5CC529";
shapes = (
{
closed = 1;
nodes = (
(304,455,o),
(195,631,o),
(50,740,c),
(18,711,l),
(136,618,o),
(201,458,o),
(201,276,cs),
(201,87,o),
(138,-63,o),
(18,-160,c),
(50,-189,l),
(191,-84,o),
(304,92,o),
(304,276,cs)
);
}
);
width = 357;
}
);
unicode = 41;
}
{
glyphname = asterisk;
layers = (
{
hints = (
{
horizontal = 1;
place = (733,-20);
target = down;
type = TopGhost;
},
{
place = (237,59);
type = Stem;
}
);
layerId = "0245B36C-B88E-4C5F-8D6F-F0580B5CC529";
shapes = (
{
closed = 1;
nodes = (
(434,631,o),
(415,650,o),
(389,650,cs),
(360,650,o),
(337,620,o),
(322,600,cs),
(312,585,o),
(299,570,o),
(259,548,c),
(262,633,o),
(290,632,o),
(290,687,cs),
(290,715,o),
(272,733,o),
(246,733,cs),
(223,733,o),
(203,717,o),
(203,687,cs),
(203,632,o),
(230,633,o),
(234,548,c),
(191,571,o),
(181,588,o),
(169,605,cs),
(152,628,o),
(128,652,o),
(102,652,cs),
(79,652,o),
(59,632,o),
(59,608,cs),
(59,593,o),
(66,579,o),
(83,569,cs),
(131,541,o),
(150,562,o),
(221,524,c),
(150,486,o),
(131,511,o),
(82,482,cs),
(65,472,o),
(58,458,o),
(58,442,cs),
(58,418,o),
(77,399,o),
(103,399,cs),
(132,399,o),
(155,429,o),
(170,449,cs),
(180,463,o),
(193,479,o),
(233,501,c),
(229,414,o),
(202,417,o),
(202,362,cs),
(202,334,o),
(220,316,o),
(246,316,cs),
(269,316,o),
(289,332,o),
(289,362,cs),
(289,417,o),
(261,415,o),
(258,501,c),
(300,477,o),
(311,461,o),
(323,444,cs),
(340,421,o),
(364,397,o),
(390,397,cs),
(413,397,o),
(433,417,o),
(433,441,cs),
(433,456,o),
(426,472,o),
(409,482,cs),
(361,510,o),
(341,486,o),
(270,524,c),
(342,563,o),
(362,538,o),
(410,567,cs),
(427,577,o),
(434,591,o),
(434,607,cs)
);
}
);
width = 493;
}
);
unicode = 42;
}
{
glyphname = comma;
layers = (
{
hints = (
{
horizontal = 1;
place = (3,120);
type = Stem;
},
{
place = (64,136);
type = Stem;
}
);
layerId = "0245B36C-B88E-4C5F-8D6F-F0580B5CC529";
shapes = (
{
closed = 1;
nodes = (
(196,90,o),
(175,123,o),
(125,123,cs),
(91,123,o),
(58,101,o),
(58,60,cs),
(58,31,o),
(74,3,o),
(134,-1,c),
(119,-61,o),
(74,-98,o),
(32,-129,c),
(58,-154,l),
(153,-105,o),
(196,-20,o),
(196,41,cs)
);
}
);
width = 249;
}
);
unicode = 44;
}
{
glyphname = hyphen;
layers = (
{
hints = (
{
horizontal = 1;
place = (181,87);
type = Stem;
},
{
place = (50,240);
type = Stem;
}
);
layerId = "0245B36C-B88E-4C5F-8D6F-F0580B5CC529";
shapes = (
{
closed = 1;
nodes = (
(282,265,l),
(46,265,l),
(46,181,l),
(282,181,l)
);
}
);
width = 328;
}
);
unicode = 45;
}
{
glyphname = period;
layers = (
{
hints = (
{
horizontal = 1;
place = (-6,134);
type = Stem;
},
{
place = (62,136);
type = Stem;
}
);
layerId = "0245B36C-B88E-4C5F-8D6F-F0580B5CC529";
shapes = (
{
closed = 1;
nodes = (
(194,98,o),
(163,129,o),
(125,129,cs),
(87,129,o),
(58,98,o),
(58,62,cs),
(58,25,o),
(87,-6,o),
(125,-6,cs),
(163,-6,o),
(194,25,o),
(194,62,cs)
);
}
);
width = 249;
}
);
unicode = 46;
}
{
glyphname = slash;
layers = (
{
hints = (
{
horizontal = 1;
place = (730,-20);
target = down;
type = TopGhost;
}
);
layerId = "0245B36C-B88E-4C5F-8D6F-F0580B5CC529";
shapes = (
{
closed = 1;
nodes = (
(370,730,l),
(-14,-190,l),
(56,-190,l),
(441,730,l)
);
}
);
width = 489;
}
);
unicode = 47;
}
{
glyphname = zero;
layers = (
{
hints = (
{
horizontal = 1;
place = (-10,49);
type = Stem;
},
{
horizontal = 1;
place = (646,49);
type = Stem;
},
{
place = (49,109);
type = Stem;
},
{
place = (462,109);
type = Stem;
}
);
layerId = "0245B36C-B88E-4C5F-8D6F-F0580B5CC529";
shapes = (
{
closed = 1;
nodes = (
(567,552,o),
(457,695,o),
(306,695,cs),
(155,695,o),
(45,552,o),
(45,342,cs),
(45,132,o),
(156,-10,o),
(306,-10,cs),
(456,-10,o),
(567,132,o),
(567,342,cs)
);
},
{
closed = 1;
nodes = (
(454,120,o),
(398,39,o),
(306,39,cs),
(212,39,o),
(158,122,o),
(158,342,cs),
(158,562,o),
(212,646,o),
(306,646,cs),
(399,646,o),
(454,563,o),
(454,342,cs)
);
}
);
width = 612;
}
);
unicode = 48;
}
{
glyphname = one;
layers = (
{
hints = (
{
horizontal = 1;
place = (0,20);
type = Stem;
},
{
place = (176,96);
type = Stem;
}
);
layerId = "0245B36C-B88E-4C5F-8D6F-F0580B5CC529";
shapes = (
{
closed = 1;
nodes = (
(361,25,ls),
(361,43,o),
(343,47,o),
(318,51,cs),
(279,57,o),
(268,74,o),
(268,102,cs),
(268,688,l),
(223,688,l),
(52,626,l),
(52,588,l),
(167,588,l),
(167,102,ls),
(167,70,o),
(158,58,o),
(118,50,cs),
(93,45,o),
(72,42,o),
(72,24,cs),
(72,0,l),
(361,0,l)
);
}
);
width = 407;
}
);
unicode = 49;
}
{
glyphname = two;
layers = (
{
hints = (
{
horizontal = 1;
place = (0,87);
type = Stem;
},
{
horizontal = 1;
place = (646,49);
type = Stem;
},
{
place = (40,121);
type = Stem;
},
{
place = (382,109);
type = Stem;
}
);
layerId = "0245B36C-B88E-4C5F-8D6F-F0580B5CC529";
shapes = (
{
closed = 1;
nodes = (
(487,625,o),
(399,695,o),
(263,695,cs),
(134,695,o),
(36,611,o),
(36,539,cs),
(36,498,o),
(58,469,o),
(103,469,cs),
(137,469,o),
(160,492,o),
(160,524,cs),
(160,551,o),
(143,570,o),
(122,586,c),
(134,616,o),
(185,646,o),
(237,646,cs),
(320,646,o),
(373,602,o),
(373,527,cs),
(373,451,o),
(323,383,o),
(234,295,cs),
(159,221,o),
(66,129,o),
(23,67,c),
(23,0,l),
(481,0,l),
(486,159,l),
(456,159,ls),
(445,159,o),
(438,156,o),
(434,143,cs),
(419,98,o),
(401,89,o),
(360,89,cs),
(106,89,l),
(150,144,o),
(190,174,o),
(277,245,cs),
(357,310,o),
(487,401,o),
(487,521,cs)
);
}
);
width = 522;
}
);
unicode = 50;
}
{
glyphname = three;
layers = (
{
hints = (
{
horizontal = 1;
place = (-10,49);
type = Stem;
},
{
horizontal = 1;
place = (346,49);
type = Stem;
},
{
horizontal = 1;
place = (646,49);
type = Stem;
},
{
place = (16,121);
type = Stem;
},
{
place = (392,109);
type = Stem;
}
);
layerId = "0245B36C-B88E-4C5F-8D6F-F0580B5CC529";
shapes = (
{
closed = 1;
nodes = (
(497,311,o),
(398,368,o),
(295,378,c),
(392,400,o),
(470,453,o),
(470,541,cs),
(470,629,o),
(376,695,o),
(249,695,cs),
(147,695,o),
(41,641,o),
(41,571,cs),
(41,532,o),
(68,508,o),
(100,508,cs),
(135,508,o),
(159,530,o),
(159,561,cs),
(159,584,o),
(149,596,o),
(131,611,c),
(150,630,o),
(181,646,o),
(235,646,cs),
(314,646,o),
(359,598,o),
(359,541,cs),
(359,446,o),
(310,405,o),
(169,395,c),
(169,347,l),
(309,347,o),
(384,305,o),
(384,199,cs),
(384,117,o),
(329,39,o),
(217,39,cs),
(167,39,o),
(126,56,o),
(112,77,c),
(127,94,o),
(137,111,o),
(137,138,cs),
(137,158,o),
(117,185,o),
(77,185,cs),
(35,185,o),
(12,152,o),
(12,120,cs),
(12,45,o),
(104,-10,o),
(225,-10,cs),
(364,-10,o),
(497,69,o),
(497,200,cs)
);
}
);
width = 527;
}
);
unicode = 51;
}
{
glyphname = four;
layers = (
{
hints = (
{
horizontal = 1;
place = (0,20);
type = Stem;
},
{
horizontal = 1;
place = (178,64);
type = Stem;
},
{
place = (320,155);
type = Stem;
}
);
layerId = "0245B36C-B88E-4C5F-8D6F-F0580B5CC529";
shapes = (
{
closed = 1;
nodes = (
(526,238,l),
(416,238,l),
(416,694,l),
(356,694,l),
(-4,236,l),
(-4,178,l),
(316,178,l),
(316,82,ls),
(316,57,o),
(305,55,o),
(281,44,cs),
(262,36,o),
(256,35,o),
(256,27,cs),
(256,0,l),
(471,0,l),
(471,27,ls),
(471,34,o),
(466,36,o),
(449,44,cs),
(424,55,o),
(416,61,o),
(416,82,cs),
(416,178,l),
(526,178,l)
);
},
{
closed = 1;
nodes = (
(65,238,l),
(316,558,l),
(316,238,l)
);
}
);
width = 542;
}
);
unicode = 52;
}
{
glyphname = five;
layers = (
{
hints = (
{
horizontal = 1;
place = (-10,49);
type = Stem;
},
{
horizontal = 1;
place = (375,64);
type = Stem;
},
{
horizontal = 1;
place = (597,87);
type = Stem;
},
{
horizontal = 1;
place = (729,-20);
target = down;
type = TopGhost;
},
{
place = (35,96);
type = Stem;
},
{
place = (400,109);
type = Stem;
}
);
layerId = "0245B36C-B88E-4C5F-8D6F-F0580B5CC529";
shapes = (
{
closed = 1;
nodes = (
(505,335,o),
(425,439,o),
(270,439,cs),
(221,439,o),
(169,424,o),
(120,391,c),
(134,595,l),
(458,595,l),
(467,729,l),
(439,729,ls),
(429,729,o),
(422,726,o),
(418,713,cs),
(410,689,o),
(404,684,o),
(363,684,cs),
(80,684,l),
(60,342,l),
(96,319,l),
(139,353,o),
(181,374,o),
(240,374,cs),
(348,374,o),
(392,298,o),
(392,207,cs),
(392,124,o),
(338,39,o),
(233,39,cs),
(183,39,o),
(140,56,o),
(127,77,c),
(142,95,o),
(152,111,o),
(152,139,cs),
(152,159,o),
(131,186,o),
(92,186,cs),
(50,186,o),
(27,153,o),
(27,121,cs),
(27,46,o),
(116,-10,o),
(234,-10,cs),
(377,-10,o),
(505,81,o),
(505,227,cs)
);
}
);
width = 536;
}
);
unicode = 53;
}
{
glyphname = six;
layers = (
{
hints = (
{
horizontal = 1;
place = (-10,49);
type = Stem;
},
{
horizontal = 1;
place = (360,64);
type = Stem;
},
{
horizontal = 1;
place = (646,49);
type = Stem;
},
{
place = (49,109);
type = Stem;
},
{
place = (402,121);
type = Stem;
}
);
layerId = "0245B36C-B88E-4C5F-8D6F-F0580B5CC529";
shapes = (
{
closed = 1;
nodes = (
(552,338,o),
(465,424,o),
(341,424,cs),
(263,424,o),
(199,387,o),
(155,344,c),
(158,565,o),
(254,646,o),
(344,646,cs),
(374,646,o),
(397,637,o),
(402,634,c),
(402,591,ls),
(402,559,o),
(420,534,o),
(459,534,cs),
(493,534,o),
(519,558,o),
(519,594,cs),
(519,646,o),
(460,695,o),
(361,695,cs),
(166,695,o),
(45,520,o),
(45,314,cs),
(45,127,o),
(137,-10,o),
(301,-10,cs),
(452,-10,o),
(552,101,o),
(552,227,cs)
);
},
{
closed = 1;
nodes = (
(439,118,o),
(396,39,o),
(302,39,cs),
(200,39,o),
(156,164,o),
(156,289,c),
(174,312,o),
(236,360,o),
(307,360,cs),
(399,360,o),
(439,296,o),
(439,217,cs)
);
}
);
width = 584;
}
);
unicode = 54;
}
{
glyphname = seven;
layers = (
{
hints = (
{
horizontal = 1;
place = (-10,20);
type = Stem;
},
{
horizontal = 1;
place = (597,87);
type = Stem;
},
{
place = (128,128);
type = Stem;
}
);
layerId = "0245B36C-B88E-4C5F-8D6F-F0580B5CC529";
shapes = (
{
closed = 1;
nodes = (
(488,684,l),
(163,684,ls),
(119,684,o),
(58,687,o),
(27,690,c),
(15,534,l),
(48,534,ls),
(58,534,o),
(63,537,o),
(68,550,cs),
(77,575,o),
(86,595,o),
(126,595,cs),
(404,595,l),
(290,441,o),
(124,166,o),
(124,60,cs),
(124,11,o),
(149,-10,o),
(189,-10,cs),
(234,-10,o),
(252,17,o),
(252,78,cs),
(252,290,o),
(353,434,o),
(488,633,c)
);
}
);
width = 483;
}
);
unicode = 55;
}
{
glyphname = eight;
layers = (
{
hints = (
{
horizontal = 1;
place = (-11,49);
type = Stem;
},
{
horizontal = 1;
place = (646,49);
type = Stem;
},
{
place = (28,96);
type = Stem;
},
{
place = (431,96);
type = Stem;
}
);
layerId = "0245B36C-B88E-4C5F-8D6F-F0580B5CC529";
shapes = (
{
closed = 1;
nodes = (
(523,283,o),
(456,337,o),
(347,383,c),
(416,408,o),
(485,468,o),
(485,541,cs),
(485,628,o),
(405,695,o),
(277,695,cs),
(159,695,o),
(59,618,o),
(59,513,cs),
(59,441,o),
(106,389,o),
(183,348,c),
(109,320,o),
(24,259,o),
(24,167,cs),
(24,69,o),
(114,-11,o),
(264,-11,cs),
(404,-11,o),
(523,66,o),
(523,185,cs)
);
},
{
closed = 1;
nodes = (
(400,468,o),
(351,430,o),
(298,405,c),
(218,438,o),
(147,469,o),
(147,541,cs),
(147,600,o),
(198,646,o),
(274,646,cs),
(349,646,o),
(400,599,o),
(400,538,cs)
);
},
{
closed = 1;
nodes = (
(429,85,o),
(355,38,o),
(271,38,cs),
(179,38,o),
(115,92,o),
(115,172,cs),
(115,265,o),
(189,303,o),
(236,324,c),
(336,282,o),
(429,252,o),
(429,164,cs)
);
}
);
width = 547;
}
);
unicode = 56;
}
{
glyphname = nine;
layers = (
{
hints = (
{
horizontal = 1;
place = (-10,49);
type = Stem;
},
{
horizontal = 1;
place = (260,64);
type = Stem;
},
{
horizontal = 1;
place = (646,49);
type = Stem;
},
{
place = (58,121);
type = Stem;
},
{
place = (434,109);
type = Stem;
}
);
layerId = "0245B36C-B88E-4C5F-8D6F-F0580B5CC529";
shapes = (
{
closed = 1;
nodes = (
(539,546,o),
(451,695,o),
(281,695,cs),
(131,695,o),
(32,585,o),
(32,459,cs),
(32,348,o),
(119,260,o),
(242,260,cs),
(320,260,o),
(385,297,o),
(430,340,c),
(426,119,o),
(326,39,o),
(237,39,cs),
(203,39,o),
(180,44,o),
(171,50,c),
(171,95,ls),
(171,127,o),
(154,151,o),
(116,151,cs),
(80,151,o),
(54,127,o),
(54,91,cs),
(54,39,o),
(113,-10,o),
(222,-10,cs),
(422,-10,o),
(539,172,o),
(539,371,cs)
);
},
{
closed = 1;
nodes = (
(410,372,o),
(349,324,o),
(277,324,cs),
(186,324,o),
(145,387,o),
(145,467,cs),
(145,569,o),
(187,646,o),
(280,646,cs),
(384,646,o),
(428,522,o),
(428,395,c)
);
}
);
width = 584;
}
);
unicode = 57;
}
{
glyphname = colon;
layers = (
{
hints = (
{
horizontal = 1;
place = (-6,134);
type = Stem;
},
{
horizontal = 1;
place = (303,134);
type = Stem;
},
{
place = (72,136);
type = Stem;
}
);
layerId = "0245B36C-B88E-4C5F-8D6F-F0580B5CC529";
shapes = (
{
closed = 1;
nodes = (
(204,406,o),
(174,437,o),
(135,437,cs),
(98,437,o),
(68,406,o),
(68,370,cs),
(68,333,o),
(98,302,o),
(135,302,cs),
(174,302,o),
(204,333,o),
(204,370,cs)
);
},
{
closed = 1;
nodes = (
(204,98,o),
(174,129,o),
(135,129,cs),
(98,129,o),
(68,98,o),
(68,62,cs),
(68,25,o),
(98,-6,o),
(135,-6,cs),
(174,-6,o),
(204,25,o),
(204,62,cs)
);
}
);
width = 271;
}
);
unicode = 58;
}
{
glyphname = semicolon;
layers = (
{
hints = (
{
horizontal = 1;
place = (303,134);
type = Stem;
},
{
place = (75,136);
type = Stem;
}
);
layerId = "0245B36C-B88E-4C5F-8D6F-F0580B5CC529";
shapes = (
{
closed = 1;
nodes = (
(204,406,o),
(174,437,o),
(135,437,cs),
(98,437,o),
(68,406,o),
(68,370,cs),
(68,333,o),
(98,302,o),
(135,302,cs),
(174,302,o),
(204,333,o),
(204,370,cs)
);
},
{
closed = 1;
nodes = (
(207,90,o),
(186,123,o),
(135,123,cs),
(102,123,o),
(68,101,o),
(68,60,cs),
(68,31,o),
(85,3,o),
(145,-1,c),
(130,-61,o),
(85,-98,o),
(43,-129,c),
(68,-154,l),
(163,-105,o),
(207,-20,o),
(207,41,cs)
);
}
);
width = 271;
}
);
unicode = 59;
}
{
glyphname = less;
layers = (
{
layerId = "0245B36C-B88E-4C5F-8D6F-F0580B5CC529";
shapes = (
{
closed = 1;
nodes = (
(639,102,l),
(212,293,l),
(639,484,l),
(639,561,l),
(127,327,l),
(127,260,l),
(639,26,l)
);
}
);
width = 766;
}
);
unicode = 60;
}
{
glyphname = equal;
layers = (
{
hints = (
{
horizontal = 1;
place = (148,64);
type = Stem;
},
{
horizontal = 1;
place = (338,64);
type = Stem;
}
);
layerId = "0245B36C-B88E-4C5F-8D6F-F0580B5CC529";
shapes = (
{
closed = 1;
nodes = (
(641,402,l),
(125,402,l),
(125,334,l),
(641,334,l)
);
},
{
closed = 1;
nodes = (
(641,216,l),
(125,216,l),
(125,148,l),
(641,148,l)
);
}
);
width = 766;
}
);
unicode = 61;
}
{
glyphname = greater;
layers = (
{
layerId = "0245B36C-B88E-4C5F-8D6F-F0580B5CC529";
shapes = (
{
closed = 1;
nodes = (
(639,327,l),
(127,561,l),
(127,485,l),
(554,293,l),
(127,102,l),
(127,26,l),
(639,260,l)
);
}
);
width = 766;
}
);
unicode = 62;
}
{
glyphname = question;
layers = (
{
hints = (
{
horizontal = 1;
place = (-6,134);
type = Stem;
},
{
horizontal = 1;
place = (697,43);
type = Stem;
},
{
place = (44,121);
type = Stem;
},
{
place = (185,96);
type = Stem;
},
{
place = (312,109);
type = Stem;
}
);
layerId = "0245B36C-B88E-4C5F-8D6F-F0580B5CC529";
shapes = (
{
closed = 1;
nodes = (
(417,679,o),
(342,740,o),
(228,740,cs),
(103,740,o),
(40,675,o),
(40,618,cs),
(40,585,o),
(64,557,o),
(103,557,cs),
(134,557,o),
(160,577,o),
(160,615,cs),
(160,626,o),
(157,643,o),
(133,662,c),
(148,688,o),
(182,700,o),
(209,700,cs),
(258,700,o),
(307,678,o),
(307,589,cs),
(307,532,o),
(281,505,o),
(237,427,cs),
(191,347,o),
(179,270,o),
(181,210,c),
(181,205,o),
(191,197,o),
(206,197,cs),
(218,197,o),
(229,205,o),
(229,210,c),
(233,292,o),
(245,348,o),
(328,436,cs),
(382,493,o),
(417,528,o),
(417,591,cs)
);
},
{
closed = 1;
nodes = (
(274,97,o),
(243,127,o),
(204,127,cs),
(167,127,o),
(137,97,o),
(137,61,cs),
(137,24,o),
(167,-6,o),
(204,-6,cs),
(243,-6,o),
(274,24,o),
(274,61,cs)
);
}
);
width = 449;
}
);
unicode = 63;
}
{
glyphname = at;
layers = (
{
hints = (
{
horizontal = 1;
place = (-198,49);
type = Stem;
},
{
horizontal = 1;
place = (5,49);
type = Stem;
},
{
horizontal = 1;
place = (405,43);
type = Stem;
},
{
horizontal = 1;
place = (604,49);
type = Stem;
},
{
place = (80,87);
type = Stem;
},
{
place = (301,96);
type = Stem;
},
{
place = (582,87);
type = Stem;
},
{
place = (888,59);
type = Stem;
}
);
layerId = "0245B36C-B88E-4C5F-8D6F-F0580B5CC529";
shapes = (
{
closed = 1;
nodes = (
(943,515,o),
(796,653,o),
(563,653,cs),
(294,653,o),
(76,452,o),
(76,203,cs),
(76,-27,o),
(247,-198,o),
(538,-198,cs),
(654,-198,o),
(764,-160,o),
(866,-86,c),
(844,-49,l),
(743,-118,o),
(644,-150,o),
(537,-150,cs),
(315,-150,o),
(160,-12,o),
(160,192,cs),
(160,423,o),
(339,603,o),
(574,603,cs),
(769,603,o),
(887,477,o),
(887,330,cs),
(887,183,o),
(801,44,o),
(690,44,cs),
(674,44,o),
(665,55,o),
(665,77,cs),
(665,95,o),
(670,115,o),
(675,134,cs),
(759,441,l),
(738,441,l),
(692,410,l),
(672,436,o),
(641,448,o),
(598,448,cs),
(540,448,o),
(480,423,o),
(426,378,cs),
(349,313,o),
(297,223,o),
(297,139,cs),
(297,55,o),
(339,5,o),
(427,5,cs),
(493,5,o),
(525,25,o),
(577,61,c),
(578,39,o),
(592,-2,o),
(658,-2,cs),
(830,-2,o),
(943,162,o),
(943,319,cs)
);
},
{
closed = 1;
nodes = (
(641,360,o),
(639,336,o),
(634,318,cs),
(577,108,l),
(550,78,o),
(511,59,o),
(480,59,cs),
(424,59,o),
(397,91,o),
(397,150,cs),
(397,215,o),
(434,298,o),
(484,353,cs),
(516,388,o),
(553,406,o),
(593,406,cs),
(625,406,o),
(641,392,o),
(641,371,cs)
);
}
);
width = 1012;
}
);
unicode = 64;
}
{
glyphname = A;
layers = (
{
hints = (
{
horizontal = 1;
place = (0,20);
type = Stem;
},
{
horizontal = 1;
place = (204,49);
type = Stem;
},
{
place = (-3,201);
type = Stem;
},
{
place = (495,240);
type = Stem;
}
);
layerId = "0245B36C-B88E-4C5F-8D6F-F0580B5CC529";
shapes = (
{
closed = 1;
nodes = (
(731,25,ls),
(731,35,o),
(727,35,o),
(702,45,cs),
(680,54,o),
(666,72,o),
(658,90,cs),
(380,734,ls),
(378,739,o),
(376,741,o),
(371,741,cs),
(366,741,o),
(362,738,o),
(360,736,cs),
(339,720,o),
(312,703,o),
(291,691,cs),
(285,688,o),
(283,686,o),
(283,683,cs),
(283,680,o),
(285,676,o),
(288,671,cs),
(309,627,l),
(71,105,ls),
(56,71,o),
(46,62,o),
(14,43,cs),
(-2,33,o),
(-7,29,o),
(-7,20,cs),
(-7,0,l),
(194,0,l),
(194,15,ls),
(194,25,o),
(186,32,o),
(166,39,cs),
(145,47,o),
(133,55,o),
(133,70,cs),
(133,79,o),
(140,99,o),
(145,110,cs),
(186,204,l),
(494,204,l),
(534,109,ls),
(541,91,o),
(548,75,o),
(548,68,cs),
(548,58,o),
(536,50,o),
(519,42,cs),
(497,31,o),
(491,30,o),
(491,20,cs),
(491,0,l),
(731,0,l)
);
},
{
closed = 1;
nodes = (
(208,255,l),
(342,561,l),
(472,255,l)
);
}
);
width = 725;
}
);
unicode = 65;
}
{
glyphname = B;
layers = (
{
hints = (
{
horizontal = 1;
place = (0,49);
type = Stem;
},
{
horizontal = 1;
place = (355,49);
type = Stem;
},
{
horizontal = 1;
place = (681,49);
type = Stem;
},
{
place = (103,109);
type = Stem;
},
{
place = (513,121);
type = Stem;
}
);
layerId = "0245B36C-B88E-4C5F-8D6F-F0580B5CC529";
shapes = (
{
closed = 1;
nodes = (
(630,314,o),
(530,372,o),
(403,383,c),
(521,401,o),
(589,476,o),
(589,555,cs),
(589,655,o),
(504,730,o),
(326,730,cs),
(38,730,l),
(38,705,ls),
(38,695,o),
(42,694,o),
(67,685,cs),
(94,675,o),
(99,668,o),
(99,649,cs),
(99,81,ls),
(99,58,o),
(93,56,o),
(65,45,cs),
(40,35,o),
(36,35,o),
(36,25,cs),
(36,0,l),
(353,0,ls),
(528,0,o),
(630,92,o),
(630,196,cs)
);
},
{
closed = 1;
nodes = (
(468,459,o),
(419,404,o),
(299,404,cs),
(208,404,l),
(208,682,l),
(289,682,ls),
(425,682,o),
(468,629,o),
(468,543,cs)
);
},
{
closed = 1;
nodes = (
(508,102,o),
(445,49,o),
(304,49,cs),
(208,49,l),
(208,351,l),
(284,351,ls),
(445,351,o),
(508,305,o),
(508,201,cs)
);
}
);
width = 657;
}
);
unicode = 66;
}
{
glyphname = C;
layers = (
{
hints = (
{
horizontal = 1;
place = (-11,56);
type = Stem;
},
{
horizontal = 1;
place = (692,49);
type = Stem;
},
{
place = (39,121);
type = Stem;
}
);
layerId = "0245B36C-B88E-4C5F-8D6F-F0580B5CC529";
shapes = (
{
closed = 1;
nodes = (
(627,178,l),
(604,145,o),
(525,45,o),
(386,45,cs),
(254,45,o),
(157,158,o),
(157,366,cs),
(157,599,o),
(287,691,o),
(388,691,cs),
(479,691,o),
(542,625,o),
(571,537,cs),
(574,529,o),
(576,524,o),
(589,524,cs),
(623,524,l),
(623,705,l),
(600,705,ls),
(591,705,o),
(589,701,o),
(575,692,cs),
(564,685,o),
(555,690,o),
(544,696,cs),
(485,730,o),
(436,741,o),
(370,741,cs),
(210,741,o),
(35,612,o),
(35,362,cs),
(35,175,o),
(145,-11,o),
(379,-11,cs),
(532,-11,o),
(633,83,o),
(662,142,c)
);
}
);
width = 665;
}
);
unicode = 67;
}
{
glyphname = D;
layers = (
{
hints = (
{
horizontal = 1;
place = (0,49);
type = Stem;
},
{
horizontal = 1;
place = (681,49);
type = Stem;
},
{
place = (103,109);
type = Stem;
},
{
place = (593,121);
type = Stem;
}
);
layerId = "0245B36C-B88E-4C5F-8D6F-F0580B5CC529";
shapes = (
{
closed = 1;
nodes = (
(710,582,o),
(553,730,o),
(291,730,cs),
(38,730,l),
(38,705,ls),
(38,695,o),
(42,694,o),
(67,685,cs),
(94,675,o),
(99,668,o),
(99,649,cs),
(99,81,ls),
(99,58,o),
(93,56,o),
(65,45,cs),
(40,35,o),
(36,35,o),
(36,25,cs),
(36,0,l),
(316,0,ls),
(548,0,o),
(710,147,o),
(710,365,cs)
);
},
{
closed = 1;
nodes = (
(587,143,o),
(479,48,o),
(287,48,cs),
(208,48,l),
(208,682,l),
(274,682,ls),
(472,682,o),
(587,579,o),
(587,365,cs)
);
}
);
width = 745;
}
);
unicode = 68;
}
{
glyphname = E;
layers = (
{
hints = (
{
horizontal = 1;
place = (0,49);
type = Stem;
},
{
horizontal = 1;
place = (349,49);
type = Stem;
},
{
horizontal = 1;
place = (681,49);
type = Stem;
},
{
place = (103,109);
type = Stem;
}
);
layerId = "0245B36C-B88E-4C5F-8D6F-F0580B5CC529";
shapes = (
{
closed = 1;
nodes = (
(601,165,l),
(572,165,ls),
(559,165,o),
(555,158,o),
(550,145,cs),
(520,73,o),
(500,50,o),
(440,50,cs),
(208,50,l),
(208,349,l),
(315,349,ls),
(348,349,o),
(356,341,o),
(374,306,cs),
(379,296,o),
(387,285,o),
(403,285,cs),
(430,285,l),
(430,468,l),
(406,468,ls),
(388,468,o),
(383,462,o),
(377,449,cs),
(360,413,o),
(352,400,o),
(312,400,cs),
(208,400,l),
(208,680,l),
(388,680,ls),
(465,680,o),
(472,667,o),
(497,605,cs),
(501,595,o),
(509,589,o),
(525,589,cs),
(550,589,l),
(550,738,l),
(531,736,o),
(477,730,o),
(450,730,cs),
(38,730,l),
(38,705,ls),
(38,695,o),
(42,694,o),
(67,685,cs),
(94,675,o),
(99,668,o),
(99,649,cs),
(99,81,ls),
(99,58,o),
(93,56,o),
(65,45,cs),
(40,35,o),
(36,35,o),
(36,25,cs),
(36,0,l),
(601,0,l)
);
}
);
width = 623;
}
);
unicode = 69;
}
{
glyphname = F;
layers = (
{
hints = (
{
horizontal = 1;
place = (0,20);
type = Stem;
},
{
horizontal = 1;
place = (346,49);
type = Stem;
},
{
horizontal = 1;
place = (681,49);
type = Stem;
},
{
place = (103,109);
type = Stem;
}
);
layerId = "0245B36C-B88E-4C5F-8D6F-F0580B5CC529";
shapes = (
{
closed = 1;
nodes = (
(584,738,l),
(564,736,o),
(521,730,o),
(483,730,cs),
(38,730,l),
(38,705,ls),
(38,695,o),
(42,694,o),
(67,685,cs),
(94,675,o),
(99,668,o),
(99,649,cs),
(99,81,ls),
(99,58,o),
(93,56,o),
(65,45,cs),
(40,35,o),
(36,35,o),
(36,25,cs),
(36,0,l),
(268,0,l),
(268,25,ls),
(268,35,o),
(264,36,o),
(241,45,cs),
(214,56,o),
(208,58,o),
(208,81,cs),
(208,346,l),
(341,346,ls),
(374,346,o),
(383,338,o),
(401,303,cs),
(406,293,o),
(413,282,o),
(428,282,cs),
(455,282,l),
(455,465,l),
(432,465,ls),
(414,465,o),
(410,458,o),
(404,446,cs),
(386,410,o),
(379,397,o),
(338,397,cs),
(208,397,l),
(208,680,l),
(420,680,ls),
(498,680,o),
(513,661,o),
(531,603,cs),
(534,593,o),
(538,587,o),
(555,587,cs),
(584,587,l)
);
}
);
width = 596;
}
);
unicode = 70;
}
{
glyphname = G;
layers = (
{
hints = (
{
horizontal = 1;
place = (-11,49);
type = Stem;
},
{
horizontal = 1;
place = (692,49);
type = Stem;
},
{
place = (39,121);
type = Stem;
},
{
place = (514,170);
type = Stem;
}
);
layerId = "0245B36C-B88E-4C5F-8D6F-F0580B5CC529";
shapes = (
{
closed = 1;
nodes = (
(739,77,ls),
(739,87,o),
(736,87,o),
(712,94,cs),
(683,102,o),
(680,112,o),
(680,130,cs),
(680,251,ls),
(680,269,o),
(684,299,o),
(686,315,c),
(514,315,l),
(514,290,ls),
(514,280,o),
(519,279,o),
(542,270,cs),
(568,260,o),
(574,252,o),
(574,234,cs),
(574,126,ls),
(574,78,o),
(537,36,o),
(420,36,cs),
(270,36,o),
(157,162,o),
(157,365,cs),
(157,596,o),
(277,691,o),
(392,691,cs),
(488,691,o),
(558,625,o),
(587,537,cs),
(590,529,o),
(592,524,o),
(605,524,cs),
(639,524,l),
(639,705,l),
(615,705,ls),
(607,705,o),
(605,701,o),
(591,692,cs),
(584,687,o),
(573,690,o),
(559,698,cs),
(500,730,o),
(446,741,o),
(386,741,cs),
(216,741,o),
(35,607,o),
(35,362,cs),
(35,175,o),
(156,-11,o),
(419,-11,cs),
(538,-11,o),
(661,30,o),
(739,56,c)
);
}
);
width = 747;
}
);
unicode = 71;
}
{
glyphname = H;
layers = (
{
hints = (
{
horizontal = 1;
place = (0,20);
type = Stem;
},
{
horizontal = 1;
place = (354,49);
type = Stem;
},
{
horizontal = 1;
place = (730,-20);
target = down;
type = TopGhost;
},
{
place = (103,109);
type = Stem;
},
{
place = (591,109);
type = Stem;
}
);
layerId = "0245B36C-B88E-4C5F-8D6F-F0580B5CC529";
shapes = (
{
closed = 1;
nodes = (
(756,25,ls),
(756,35,o),
(752,36,o),
(729,45,cs),
(701,56,o),
(696,63,o),
(696,81,cs),
(696,649,ls),
(696,673,o),
(700,674,o),
(729,685,cs),
(752,694,o),
(756,695,o),
(756,705,cs),
(756,730,l),
(526,730,l),
(526,705,ls),
(526,695,o),
(531,694,o),
(554,685,cs),
(581,675,o),
(587,673,o),
(587,649,cs),
(587,403,l),
(208,403,l),
(208,649,ls),
(208,673,o),
(212,674,o),
(240,685,cs),
(263,694,o),
(267,695,o),
(267,705,cs),
(267,730,l),
(37,730,l),
(37,705,ls),
(37,695,o),
(41,694,o),
(66,685,cs),
(93,675,o),
(99,668,o),
(99,649,cs),
(99,81,ls),
(99,58,o),
(94,56,o),
(66,45,cs),
(41,35,o),
(37,35,o),
(37,25,cs),
(37,0,l),
(267,0,l),
(267,25,ls),
(267,35,o),
(263,36,o),
(240,45,cs),
(213,56,o),
(208,59,o),
(208,82,cs),
(208,350,l),
(587,350,l),
(587,81,ls),
(587,58,o),
(582,57,o),
(554,45,cs),
(531,36,o),
(526,35,o),
(526,25,cs),
(526,0,l),
(756,0,l)
);
}
);
width = 795;
}
);
unicode = 72;
}
{
glyphname = I;
layers = (
{
hints = (
{
horizontal = 1;
place = (0,20);
type = Stem;
},
{
horizontal = 1;
place = (730,-20);
target = down;
type = TopGhost;
},
{
place = (107,109);
type = Stem;
}
);
layerId = "0245B36C-B88E-4C5F-8D6F-F0580B5CC529";
shapes = (
{
closed = 1;
nodes = (
(272,25,ls),
(272,35,o),
(267,36,o),
(244,45,cs),
(217,56,o),
(212,58,o),
(212,81,cs),
(212,649,ls),
(212,673,o),
(216,674,o),
(244,685,cs),
(267,694,o),
(272,695,o),
(272,705,cs),
(272,730,l),
(41,730,l),
(41,705,ls),
(41,695,o),
(46,694,o),
(70,685,cs),
(97,675,o),
(103,668,o),
(103,649,cs),
(103,81,ls),
(103,58,o),
(99,57,o),
(70,45,cs),
(46,36,o),
(41,35,o),
(41,25,cs),
(41,0,l),
(272,0,l)
);
}
);
width = 315;
}
);
unicode = 73;
}
{
glyphname = J;
layers = (
{
hints = (
{
horizontal = 1;
place = (-11,43);
type = Stem;
},
{
horizontal = 1;
place = (730,-20);
target = down;
type = TopGhost;
},
{
place = (9,121);
type = Stem;
},
{
place = (282,109);
type = Stem;
}
);
layerId = "0245B36C-B88E-4C5F-8D6F-F0580B5CC529";
shapes = (
{
closed = 1;
nodes = (
(447,730,l),
(214,730,l),
(214,705,ls),
(214,695,o),
(220,694,o),
(243,685,cs),
(270,675,o),
(278,668,o),
(278,649,cs),
(278,161,ls),
(278,66,o),
(224,31,o),
(168,31,cs),
(139,31,o),
(104,49,o),
(100,65,c),
(122,77,o),
(130,101,o),
(130,123,cs),
(130,151,o),
(107,170,o),
(71,170,cs),
(27,170,o),
(5,135,o),
(5,97,cs),
(5,42,o),
(69,-11,o),
(167,-11,cs),
(308,-11,o),
(387,82,o),
(387,203,cs),
(387,649,ls),
(387,673,o),
(392,674,o),
(419,685,cs),
(443,694,o),
(447,695,o),
(447,705,cs)
);
}
);
width = 475;
}
);
unicode = 74;
}
{
glyphname = K;
layers = (
{
hints = (
{
horizontal = 1;
place = (0,20);
type = Stem;
},
{
horizontal = 1;
place = (730,-20);
target = down;
type = TopGhost;
},
{
place = (103,109);
type = Stem;
},
{
place = (429,240);
type = Stem;
}
);
layerId = "0245B36C-B88E-4C5F-8D6F-F0580B5CC529";
shapes = (
{
closed = 1;
nodes = (
(721,24,ls),
(721,33,o),
(714,33,o),
(690,43,cs),
(665,53,o),
(638,74,o),
(624,88,cs),
(300,418,l),
(541,629,ls),
(573,657,o),
(587,669,o),
(628,682,cs),
(662,693,o),
(665,693,o),
(665,706,cs),
(665,730,l),
(429,730,l),
(429,711,ls),
(429,699,o),
(431,696,o),
(454,688,cs),
(472,682,o),
(491,678,o),
(491,668,cs),
(491,662,o),
(477,649,o),
(463,636,cs),
(208,399,l),
(208,649,ls),
(208,673,o),
(212,674,o),
(240,685,cs),
(263,694,o),
(267,695,o),
(267,705,cs),
(267,730,l),
(37,730,l),
(37,705,ls),
(37,695,o),
(41,694,o),
(66,685,cs),
(93,675,o),
(99,668,o),
(99,649,cs),
(99,81,ls),
(99,58,o),
(94,56,o),
(66,45,cs),
(41,35,o),
(37,35,o),
(37,25,cs),
(37,0,l),
(267,0,l),
(267,25,ls),
(267,35,o),
(263,36,o),
(240,45,cs),
(213,56,o),
(208,58,o),
(208,81,cs),
(208,370,l),
(481,90,ls),
(491,79,o),
(505,64,o),
(505,58,cs),
(505,53,o),
(497,47,o),
(489,43,cs),
(470,35,o),
(461,32,o),
(461,24,cs),
(461,0,l),
(721,0,l)
);
}
);
width = 697;
}
);
unicode = 75;
}
{
glyphname = L;
layers = (
{
hints = (
{
horizontal = 1;
place = (0,49);
type = Stem;
},
{
horizontal = 1;
place = (730,-20);
target = down;
type = TopGhost;
},
{
place = (103,109);
type = Stem;
}
);
layerId = "0245B36C-B88E-4C5F-8D6F-F0580B5CC529";
shapes = (
{
closed = 1;
nodes = (
(598,167,l),
(568,167,ls),
(555,167,o),
(552,160,o),
(547,147,cs),
(517,76,o),
(497,50,o),
(437,50,cs),
(208,50,l),
(208,649,ls),
(208,673,o),
(212,674,o),
(240,685,cs),
(263,694,o),
(267,695,o),
(267,705,cs),
(267,730,l),
(38,730,l),
(38,705,ls),
(38,695,o),
(42,694,o),
(67,685,cs),
(94,675,o),
(99,668,o),
(99,649,cs),
(99,81,ls),
(99,58,o),
(93,56,o),
(65,45,cs),
(40,35,o),
(36,35,o),
(36,25,cs),
(36,0,l),
(598,0,l)
);
}
);
width = 604;
}
);
unicode = 76;
}
{
glyphname = M;
layers = (
{
hints = (
{
horizontal = 1;
place = (-1,20);
type = Stem;
},
{
horizontal = 1;
place = (730,-20);
target = down;
type = TopGhost;
},
{
place = (103,128);
type = Stem;
},
{
place = (718,109);
type = Stem;
}
);
layerId = "0245B36C-B88E-4C5F-8D6F-F0580B5CC529";
shapes = (
{
closed = 1;
nodes = (
(882,25,ls),
(882,35,o),
(877,36,o),
(854,45,cs),
(827,56,o),
(821,63,o),
(821,81,cs),
(821,649,ls),
(821,673,o),
(825,674,o),
(854,685,cs),
(877,694,o),
(882,695,o),
(882,705,cs),
(882,730,l),
(681,730,l),
(465,154,l),
(249,730,l),
(37,730,l),
(37,705,ls),
(37,695,o),
(41,694,o),
(66,685,cs),
(93,675,o),
(99,668,o),
(99,649,cs),
(99,110,ls),
(99,88,o),
(89,69,o),
(66,52,cs),
(42,35,o),
(37,34,o),
(37,26,cs),
(37,0,l),
(226,0,l),
(226,26,ls),
(226,34,o),
(219,33,o),
(196,50,cs),
(173,67,o),
(166,88,o),
(166,111,cs),
(166,663,l),
(411,11,ls),
(414,4,o),
(420,-1,o),
(440,-1,cs),
(455,-1,o),
(465,4,o),
(468,11,cs),
(714,654,l),
(714,81,ls),
(714,58,o),
(710,57,o),
(681,45,cs),
(658,36,o),
(654,35,o),
(654,25,cs),
(654,0,l),
(882,0,l)
);
}
);
width = 920;
}
);
unicode = 77;
}
{
glyphname = N;
layers = (
{
hints = (
{
horizontal = 1;
place = (-5,20);
type = Stem;
},
{
horizontal = 1;
place = (730,-20);
target = down;
type = TopGhost;
},
{
place = (103,128);
type = Stem;
},
{
place = (539,128);
type = Stem;
}
);
layerId = "0245B36C-B88E-4C5F-8D6F-F0580B5CC529";
shapes = (
{
closed = 1;
nodes = (
(725,730,l),
(535,730,l),
(535,704,ls),
(535,696,o),
(543,696,o),
(565,680,cs),
(589,663,o),
(596,642,o),
(596,619,cs),
(596,194,l),
(218,730,l),
(37,730,l),
(37,705,ls),
(37,695,o),
(41,694,o),
(66,685,cs),
(93,675,o),
(99,668,o),
(99,649,cs),
(99,110,ls),
(99,88,o),
(89,69,o),
(66,52,cs),
(42,35,o),
(37,34,o),
(37,26,cs),
(37,0,l),
(226,0,l),
(226,26,ls),
(226,34,o),
(219,33,o),
(196,50,cs),
(173,67,o),
(166,88,o),
(166,111,cs),
(166,632,l),
(618,-5,l),
(663,-5,l),
(663,620,ls),
(663,642,o),
(672,662,o),
(696,679,cs),
(719,695,o),
(725,696,o),
(725,704,cs)
);
}
);
width = 758;
}
);
unicode = 78;
}
{
glyphname = O;
layers = (
{
hints = (
{
horizontal = 1;
place = (-11,49);
type = Stem;
},
{
horizontal = 1;
place = (692,49);
type = Stem;
},
{
place = (39,121);
type = Stem;
},
{
place = (626,121);
type = Stem;
}
);
layerId = "0245B36C-B88E-4C5F-8D6F-F0580B5CC529";
shapes = (
{
closed = 1;
nodes = (
(743,582,o),
(598,741,o),
(389,741,cs),
(182,741,o),
(35,582,o),
(35,365,cs),
(35,143,o),
(182,-11,o),
(389,-11,cs),
(598,-11,o),
(743,147,o),
(743,365,cs)
);
},
{
closed = 1;
nodes = (
(621,149,o),
(528,39,o),
(389,39,cs),
(250,39,o),
(157,154,o),
(157,365,cs),
(157,576,o),
(250,691,o),
(389,691,cs),
(528,691,o),
(621,576,o),
(621,365,cs)
);
}
);
width = 778;
}
);
unicode = 79;
}
{
glyphname = P;
layers = (
{
hints = (
{
horizontal = 1;
place = (0,20);
type = Stem;
},
{
horizontal = 1;
place = (325,49);
type = Stem;
},
{
horizontal = 1;
place = (681,49);
type = Stem;
},
{
place = (103,109);
type = Stem;
},
{
place = (478,121);
type = Stem;
}
);
layerId = "0245B36C-B88E-4C5F-8D6F-F0580B5CC529";
shapes = (
{
closed = 1;
nodes = (
(595,641,o),
(509,730,o),
(318,730,cs),
(38,730,l),
(38,705,ls),
(38,695,o),
(42,694,o),
(67,685,cs),
(94,675,o),
(99,668,o),
(99,649,cs),
(99,81,ls),
(99,58,o),
(93,56,o),
(65,45,cs),
(40,35,o),
(36,35,o),
(36,25,cs),
(36,0,l),
(268,0,l),
(268,25,ls),
(268,35,o),
(264,36,o),
(241,45,cs),
(214,56,o),
(208,58,o),
(208,81,cs),
(208,325,l),
(289,325,ls),
(511,325,o),
(595,432,o),
(595,538,cs)
);
},
{
closed = 1;
nodes = (
(473,440,o),
(417,378,o),
(292,378,cs),
(208,378,l),
(208,680,l),
(288,680,ls),
(413,680,o),
(473,621,o),
(473,537,cs)
);
}
);
width = 608;
}
);
unicode = 80;
}
{
glyphname = Q;
layers = (
{
hints = (
{
horizontal = 1;
place = (-176,87);
type = Stem;
},
{
horizontal = 1;
place = (692,49);
type = Stem;
},
{
place = (39,121);
type = Stem;
},
{
place = (626,121);
type = Stem;
}
);
layerId = "0245B36C-B88E-4C5F-8D6F-F0580B5CC529";
shapes = (
{
closed = 1;
nodes = (
(793,-75,l),
(774,-81,o),
(752,-92,o),
(723,-92,cs),
(669,-92,o),
(634,-85,o),
(578,-58,cs),
(523,-32,o),
(472,-14,o),
(440,-5,c),
(620,19,o),
(743,166,o),
(743,365,cs),
(743,582,o),
(598,741,o),
(389,741,cs),
(182,741,o),
(35,582,o),
(35,365,cs),
(35,172,o),
(146,30,o),
(312,-2,c),
(352,-22,o),
(380,-43,o),
(450,-93,cs),
(508,-134,o),
(563,-176,o),
(643,-176,cs),
(721,-176,o),
(770,-136,o),
(793,-114,c)
);
},
{
closed = 1;
nodes = (
(621,149,o),
(528,38,o),
(389,38,cs),
(250,38,o),
(157,154,o),
(157,365,cs),
(157,576,o),
(250,691,o),
(389,691,cs),
(528,691,o),
(621,576,o),
(621,365,cs)
);
}
);
width = 778;
}
);
unicode = 81;
}
{
glyphname = R;
layers = (
{
hints = (
{
horizontal = 1;
place = (0,20);
type = Stem;
},
{
horizontal = 1;
place = (335,49);
type = Stem;
},
{
horizontal = 1;
place = (681,49);
type = Stem;
},
{
place = (103,109);
type = Stem;
},
{
place = (488,121);
type = Stem;
}
);
layerId = "0245B36C-B88E-4C5F-8D6F-F0580B5CC529";
shapes = (
{
closed = 1;
nodes = (
(709,24,ls),
(709,34,o),
(701,36,o),
(669,46,cs),
(637,56,o),
(614,90,o),
(586,132,cs),
(475,300,o),
(443,333,o),
(392,352,c),
(534,375,o),
(605,457,o),
(605,541,cs),
(605,647,o),
(515,730,o),
(334,730,cs),
(38,730,l),
(38,705,ls),
(38,695,o),
(42,694,o),
(67,685,cs),
(94,675,o),
(99,668,o),
(99,649,cs),
(99,81,ls),
(99,58,o),
(93,56,o),
(65,45,cs),
(40,35,o),
(36,35,o),
(36,25,cs),
(36,0,l),
(268,0,l),
(268,25,ls),
(268,35,o),
(264,36,o),
(241,45,cs),
(214,56,o),
(208,58,o),
(208,81,cs),
(208,335,l),
(234,335,ls),
(320,335,o),
(366,270,o),
(429,176,cs),
(548,0,l),
(709,0,l)
);
},
{
closed = 1;
nodes = (
(482,439,o),
(420,388,o),
(295,388,cs),
(208,388,l),
(208,680,l),
(306,680,ls),
(407,680,o),
(482,636,o),
(482,541,cs)
);
}
);
width = 692;
}
);
unicode = 82;
}
{
glyphname = S;
layers = (
{
hints = (
{
horizontal = 1;
place = (-10,49);
type = Stem;
},
{
horizontal = 1;
place = (692,49);
type = Stem;
},
{
place = (65,87);
type = Stem;
},
{
place = (462,96);
type = Stem;
}
);
layerId = "0245B36C-B88E-4C5F-8D6F-F0580B5CC529";
shapes = (
{
closed = 1;
nodes = (
(554,305,o),
(499,377,o),
(371,424,cs),
(331,439,o),
(284,453,o),
(245,470,cs),
(183,496,o),
(150,522,o),
(150,590,cs),
(150,651,o),
(215,691,o),
(277,691,cs),
(357,691,o),
(413,638,o),
(442,551,cs),
(445,543,o),
(447,538,o),
(459,538,cs),
(494,538,l),
(494,714,l),
(469,714,ls),
(460,714,o),
(459,713,o),
(446,704,cs),
(433,695,o),
(424,702,o),
(412,708,cs),
(362,735,o),
(320,741,o),
(285,741,cs),
(142,741,o),
(61,644,o),
(61,544,cs),
(61,477,o),
(106,402,o),
(214,362,cs),
(254,347,o),
(283,335,o),
(333,317,cs),
(401,293,o),
(459,261,o),
(459,182,cs),
(459,88,o),
(386,39,o),
(295,39,cs),
(216,39,o),
(135,77,o),
(92,179,cs),
(84,198,o),
(80,197,o),
(69,197,cs),
(36,197,l),
(36,-1,l),
(66,-1,ls),
(74,-1,o),
(83,3,o),
(91,14,cs),
(95,21,o),
(100,25,o),
(109,25,cs),
(115,25,o),
(123,23,o),
(133,18,cs),
(153,9,o),
(226,-11,o),
(295,-11,cs),
(470,-11,o),
(554,110,o),
(554,221,cs)
);
}
);
width = 585;
}
);
unicode = 83;
}
{
glyphname = T;
layers = (
{
hints = (
{
horizontal = 1;
place = (0,20);
type = Stem;
},
{
horizontal = 1;
place = (681,49);
type = Stem;
},
{
place = (274,109);
type = Stem;
}
);
layerId = "0245B36C-B88E-4C5F-8D6F-F0580B5CC529";
shapes = (
{
closed = 1;
nodes = (
(643,738,l),
(626,736,o),
(551,730,o),
(534,730,cs),
(115,730,ls),
(85,730,o),
(24,736,o),
(6,738,c),
(6,584,l),
(28,584,ls),
(47,584,o),
(59,594,o),
(63,606,cs),
(81,661,o),
(105,681,o),
(145,681,cs),
(270,681,l),
(270,81,ls),
(270,58,o),
(264,57,o),
(236,45,cs),
(213,36,o),
(208,35,o),
(208,25,cs),
(208,0,l),
(442,0,l),
(442,25,ls),
(442,35,o),
(437,36,o),
(413,45,cs),
(386,56,o),
(379,58,o),
(379,81,cs),
(379,681,l),
(504,681,ls),
(545,681,o),
(567,661,o),
(587,606,cs),
(591,595,o),
(602,584,o),
(621,584,cs),
(643,584,l)
);
}
);
width = 649;
}
);
unicode = 84;
}
{
glyphname = U;
layers = (
{
hints = (
{
horizontal = 1;
place = (-11,64);
type = Stem;
},
{
horizontal = 1;
place = (730,-20);
target = down;
type = TopGhost;
},
{
place = (96,109);
type = Stem;
},
{
place = (607,128);
type = Stem;
}
);
layerId = "0245B36C-B88E-4C5F-8D6F-F0580B5CC529";
shapes = (
{
closed = 1;
nodes = (
(731,730,l),
(541,730,l),
(541,704,ls),
(541,696,o),
(549,696,o),
(571,680,cs),
(594,663,o),
(603,642,o),
(603,619,cs),
(603,268,ls),
(603,134,o),
(540,57,o),
(398,57,cs),
(272,57,o),
(201,134,o),
(201,258,cs),
(201,649,ls),
(201,668,o),
(207,674,o),
(234,685,cs),
(257,694,o),
(262,695,o),
(262,705,cs),
(262,730,l),
(31,730,l),
(31,705,ls),
(31,695,o),
(35,694,o),
(60,685,cs),
(86,675,o),
(92,668,o),
(92,649,cs),
(92,250,ls),
(92,102,o),
(186,-11,o),
(392,-11,cs),
(582,-11,o),
(670,125,o),
(670,261,cs),
(670,620,ls),
(670,642,o),
(679,663,o),
(702,679,cs),
(726,696,o),
(731,696,o),
(731,704,cs)
);
}
);
width = 758;
}
);
unicode = 85;
}
{
glyphname = V;
layers = (
{
hints = (
{
horizontal = 1;
place = (-9,20);
type = Stem;
},
{
horizontal = 1;
place = (730,-20);
target = down;
type = TopGhost;
},
{
place = (-3,240);
type = Stem;
},
{
place = (544,201);
type = Stem;
}
);
layerId = "0245B36C-B88E-4C5F-8D6F-F0580B5CC529";
shapes = (
{
closed = 1;
nodes = (
(741,730,l),
(543,730,l),
(543,715,ls),
(543,704,o),
(551,699,o),
(571,691,cs),
(591,684,o),
(604,679,o),
(604,664,cs),
(604,658,o),
(597,639,o),
(591,623,cs),
(398,149,l),
(196,621,ls),
(189,638,o),
(183,655,o),
(183,663,cs),
(183,673,o),
(190,679,o),
(208,688,cs),
(229,698,o),
(235,700,o),
(235,710,cs),
(235,730,l),
(-7,730,l),
(-7,705,ls),
(-7,695,o),
(-3,694,o),
(21,685,cs),
(47,675,o),
(61,662,o),
(69,643,cs),
(349,1,ls),
(353,-7,o),
(359,-9,o),
(366,-9,cs),
(379,-9,ls),
(389,-9,o),
(393,-6,o),
(397,1,c),
(664,628,ls),
(679,664,o),
(687,669,o),
(719,687,cs),
(736,697,o),
(741,700,o),
(741,710,cs)
);
}
);
width = 737;
}
);
unicode = 86;
}
{
glyphname = W;
layers = (
{
hints = (
{
horizontal = 1;
place = (-8,20);
type = Stem;
},
{
horizontal = 1;
place = (730,-20);
target = down;
type = TopGhost;
},
{
place = (-1,240);
type = Stem;
},
{
place = (399,240);
type = Stem;
},
{
place = (873,201);
type = Stem;
}
);
layerId = "0245B36C-B88E-4C5F-8D6F-F0580B5CC529";
shapes = (
{
closed = 1;
nodes = (
(1070,730,l),
(869,730,l),
(869,715,ls),
(869,704,o),
(877,699,o),
(899,691,cs),
(918,684,o),
(931,679,o),
(931,664,cs),
(931,658,o),
(926,639,o),
(920,623,cs),
(754,157,l),
(591,619,ls),
(586,633,o),
(580,655,o),
(580,663,cs),
(580,673,o),
(590,680,o),
(607,688,cs),
(630,699,o),
(635,700,o),
(635,710,cs),
(635,730,l),
(395,730,l),
(395,705,ls),
(395,695,o),
(400,694,o),
(422,685,cs),
(449,675,o),
(462,661,o),
(469,643,cs),
(511,539,l),
(367,160,l),
(196,619,ls),
(191,632,o),
(185,655,o),
(185,663,cs),
(185,673,o),
(192,679,o),
(210,688,cs),
(231,698,o),
(237,700,o),
(237,710,cs),
(237,730,l),
(-5,730,l),
(-5,705,ls),
(-5,695,o),
(-1,694,o),
(23,685,cs),
(49,675,o),
(65,661,o),
(72,643,cs),
(321,2,ls),
(324,-5,o),
(331,-8,o),
(338,-8,cs),
(355,-8,ls),
(363,-8,o),
(368,-5,o),
(371,2,cs),
(541,463,l),
(705,2,l),
(709,-5,o),
(714,-8,o),
(723,-8,cs),
(740,-8,ls),
(747,-8,o),
(753,-3,o),
(755,2,cs),
(994,628,ls),
(1009,666,o),
(1016,668,o),
(1049,687,cs),
(1066,696,o),
(1070,700,o),
(1070,710,cs)
);
}
);
width = 1069;
}
);
unicode = 87;
}
{
glyphname = X;
layers = (
{
hints = (
{
horizontal = 1;
place = (0,20);
type = Stem;
},
{
horizontal = 1;
place = (730,-20);
target = down;
type = TopGhost;
},
{
place = (-1,215);
type = Stem;
},
{
place = (447,215);
type = Stem;
}
);
layerId = "0245B36C-B88E-4C5F-8D6F-F0580B5CC529";
shapes = (
{
closed = 1;
nodes = (
(680,24,ls),
(680,33,o),
(678,38,o),
(655,48,cs),
(622,63,o),
(617,69,o),
(599,94,cs),
(388,392,l),
(556,620,ls),
(590,667,o),
(603,678,o),
(635,688,cs),
(655,694,o),
(658,701,o),
(658,710,cs),
(658,730,l),
(443,730,l),
(443,715,ls),
(443,705,o),
(450,695,o),
(461,691,cs),
(486,682,o),
(507,677,o),
(507,664,cs),
(507,656,o),
(500,642,o),
(495,635,cs),
(356,436,l),
(223,626,ls),
(213,641,o),
(204,660,o),
(204,667,cs),
(204,678,o),
(217,685,o),
(230,691,cs),
(250,699,o),
(251,701,o),
(251,714,cs),
(251,730,l),
(9,730,l),
(9,706,ls),
(9,697,o),
(10,692,o),
(35,682,cs),
(68,668,o),
(74,662,o),
(92,636,cs),
(284,363,l),
(100,110,ls),
(68,66,o),
(54,53,o),
(18,42,cs),
(-3,35,o),
(-5,29,o),
(-5,20,cs),
(-5,0,l),
(213,0,l),
(213,15,ls),
(213,25,o),
(207,34,o),
(194,39,cs),
(170,47,o),
(150,54,o),
(150,67,cs),
(150,74,o),
(155,84,o),
(162,95,cs),
(317,318,l),
(467,104,ls),
(478,88,o),
(485,71,o),
(485,64,cs),
(485,53,o),
(472,45,o),
(458,39,cs),
(440,31,o),
(439,29,o),
(439,16,cs),
(439,0,l),
(680,0,l)
);
}
);
width = 674;
}
);
unicode = 88;
}
{
glyphname = Y;
layers = (
{
hints = (
{
horizontal = 1;
place = (0,20);
type = Stem;
},
{
horizontal = 1;
place = (730,-20);
target = down;
type = TopGhost;
},
{
place = (283,109);
type = Stem;
},
{
place = (474,201);
type = Stem;
}
);
layerId = "0245B36C-B88E-4C5F-8D6F-F0580B5CC529";
shapes = (
{
closed = 1;
nodes = (
(671,730,l),
(473,730,l),
(473,714,ls),
(473,704,o),
(481,699,o),
(504,691,cs),
(520,685,o),
(533,681,o),
(533,670,cs),
(533,664,o),
(525,647,o),
(516,633,cs),
(359,391,l),
(196,634,ls),
(190,643,o),
(179,664,o),
(179,669,cs),
(179,678,o),
(189,683,o),
(207,691,cs),
(229,702,o),
(230,703,o),
(230,714,cs),
(230,730,l),
(-13,730,l),
(-13,705,ls),
(-13,695,o),
(-8,694,o),
(16,685,cs),
(41,675,o),
(51,663,o),
(65,643,cs),
(279,331,l),
(279,81,ls),
(279,58,o),
(273,57,o),
(244,45,cs),
(221,36,o),
(215,35,o),
(215,25,cs),
(215,0,l),
(450,0,l),
(450,25,ls),
(450,35,o),
(444,36,o),
(421,45,cs),
(395,56,o),
(388,62,o),
(388,81,cs),
(388,333,l),
(585,630,ls),
(613,672,o),
(619,672,o),
(649,688,cs),
(666,697,o),
(671,700,o),
(671,710,cs)
);
}
);
width = 660;
}
);
unicode = 89;
}
{
glyphname = Z;
layers = (
{
hints = (
{
horizontal = 1;
place = (0,49);
type = Stem;
},
{
horizontal = 1;
place = (681,49);
type = Stem;
}
);
layerId = "0245B36C-B88E-4C5F-8D6F-F0580B5CC529";
shapes = (
{
closed = 1;
nodes = (
(606,165,l),
(578,165,ls),
(564,165,o),
(560,158,o),
(555,145,cs),
(525,74,o),
(500,50,o),
(440,50,cs),
(153,50,l),
(582,676,ls),
(592,690,o),
(600,697,o),
(600,717,cs),
(600,730,l),
(158,730,ls),
(132,730,o),
(78,736,o),
(60,738,c),
(60,583,l),
(81,583,ls),
(101,583,o),
(111,594,o),
(115,605,cs),
(134,660,o),
(157,680,o),
(199,680,cs),
(467,680,l),
(36,55,ls),
(25,38,o),
(19,31,o),
(19,18,cs),
(19,0,l),
(495,0,ls),
(524,0,o),
(587,-6,o),
(606,-8,c)
);
}
);
width = 632;
}
);
unicode = 90;
}
{
glyphname = bracketleft;
layers = (
{
hints = (
{
horizontal = 1;
place = (-190,43);
type = Stem;
},
{
horizontal = 1;
place = (687,43);
type = Stem;
},
{
place = (73,96);
type = Stem;
}
);
layerId = "0245B36C-B88E-4C5F-8D6F-F0580B5CC529";
shapes = (
{
closed = 1;
nodes = (
(326,-147,l),
(161,-147,l),
(161,687,l),
(326,687,l),
(326,730,l),
(69,730,l),
(69,-190,l),
(326,-190,l)
);
}
);
width = 357;
}
);
unicode = 91;
}
{
glyphname = bracketright;
layers = (
{
hints = (
{
horizontal = 1;
place = (-190,43);
type = Stem;
},
{
horizontal = 1;
place = (687,43);
type = Stem;
},
{
place = (195,96);
type = Stem;
}
);
layerId = "0245B36C-B88E-4C5F-8D6F-F0580B5CC529";
shapes = (
{
closed = 1;
nodes = (
(287,730,l),
(30,730,l),
(30,687,l),
(195,687,l),
(195,-147,l),
(30,-147,l),
(30,-190,l),
(287,-190,l)
);
}
);
width = 357;
}
);
unicode = 93;
}
{
glyphname = asciicircum;
layers = (
{
hints = (
{
horizontal = 1;
place = (730,-20);
target = down;
type = TopGhost;
}
);
layerId = "0245B36C-B88E-4C5F-8D6F-F0580B5CC529";
shapes = (
{
closed = 1;
nodes = (
(416,730,l),
(349,730,l),
(145,318,l),
(221,318,l),
(383,651,l),
(544,318,l),
(621,318,l)
);
}
);
width = 766;
}
);
unicode = 94;
}
{
glyphname = underscore;
layers = (
{
hints = (
{
horizontal = 1;
place = (-106,49);
type = Stem;
}
);
layerId = "0245B36C-B88E-4C5F-8D6F-F0580B5CC529";
shapes = (
{
closed = 1;
nodes = (
(535,-57,l),
(-3,-57,l),
(-3,-106,l),
(535,-106,l)
);
}
);
width = 532;
}
);
unicode = 95;
}
{
glyphname = a;
layers = (
{
hints = (
{
horizontal = 1;
place = (-7,64);
type = Stem;
},
{
horizontal = 1;
place = (226,43);
type = Stem;
},
{
horizontal = 1;
place = (395,43);
type = Stem;
},
{
place = (67,109);
type = Stem;
},
{
place = (320,96);
type = Stem;
}
);
layerId = "0245B36C-B88E-4C5F-8D6F-F0580B5CC529";
shapes = (
{
closed = 1;
nodes = (
(477,64,l),
(469,59,o),
(456,53,o),
(447,53,cs),
(424,53,o),
(412,67,o),
(412,90,cs),
(412,268,ls),
(412,369,o),
(361,438,o),
(219,438,cs),
(120,438,o),
(63,394,o),
(63,354,cs),
(63,322,o),
(81,308,o),
(118,308,cs),
(170,308,o),
(176,349,o),
(176,391,c),
(185,393,o),
(202,395,o),
(221,395,cs),
(279,395,o),
(316,352,o),
(316,269,c),
(123,269,o),
(25,206,o),
(25,117,cs),
(25,32,o),
(103,-10,o),
(185,-10,cs),
(239,-10,o),
(291,13,o),
(327,52,c),
(339,15,o),
(375,-7,o),
(413,-7,cs),
(444,-7,o),
(480,13,o),
(499,44,c)
);
},
{
closed = 1;
nodes = (
(316,122,ls),
(316,80,o),
(262,43,o),
(211,43,cs),
(162,43,o),
(124,70,o),
(124,125,cs),
(124,188,o),
(194,228,o),
(316,228,c)
);
}
);
width = 488;
}
);
unicode = 97;
}
{
glyphname = b;
layers = (
{
hints = (
{
horizontal = 1;
place = (-10,49);
type = Stem;
},
{
horizontal = 1;
place = (377,56);
type = Stem;
},
{
horizontal = 1;
place = (730,-20);
target = down;
type = TopGhost;
},
{
place = (76,96);
type = Stem;
},
{
place = (409,109);
type = Stem;
}
);
layerId = "0245B36C-B88E-4C5F-8D6F-F0580B5CC529";
shapes = (
{
closed = 1;
nodes = (
(514,364,o),
(404,433,o),
(298,433,cs),
(230,433,o),
(190,402,o),
(168,384,c),
(168,730,l),
(20,722,l),
(20,700,ls),
(20,692,o),
(26,691,o),
(44,683,cs),
(68,672,o),
(72,665,o),
(72,641,cs),
(72,1,ls),
(72,-6,o),
(78,-10,o),
(85,-10,cs),
(89,-10,o),
(95,-9,o),
(99,-5,cs),
(133,27,ls),
(139,32,o),
(147,30,o),
(154,26,cs),
(185,9,o),
(227,-10,o),
(282,-10,cs),
(428,-10,o),
(514,101,o),
(514,218,cs)
);
},
{
closed = 1;
nodes = (
(410,112,o),
(369,41,o),
(270,41,cs),
(220,41,o),
(185,67,o),
(168,84,c),
(168,328,l),
(197,358,o),
(228,378,o),
(283,378,cs),
(348,378,o),
(410,339,o),
(410,217,cs)
);
}
);
width = 538;
}
);
unicode = 98;
}
{
glyphname = c;
layers = (
{
hints = (
{
horizontal = 1;
place = (-10,56);
type = Stem;
},
{
horizontal = 1;
place = (384,49);
type = Stem;
},
{
place = (28,103);
type = Stem;
},
{
place = (301,109);
type = Stem;
}
);
layerId = "0245B36C-B88E-4C5F-8D6F-F0580B5CC529";
shapes = (
{
closed = 1;
nodes = (
(402,118,l),
(365,81,o),
(325,45,o),
(259,45,cs),
(165,45,o),
(127,136,o),
(127,224,cs),
(127,316,o),
(162,389,o),
(239,389,cs),
(273,389,o),
(298,381,o),
(306,376,c),
(300,361,o),
(295,340,o),
(295,329,cs),
(295,298,o),
(322,284,o),
(352,284,cs),
(378,284,o),
(406,297,o),
(406,340,cs),
(406,383,o),
(356,433,o),
(251,433,cs),
(117,433,o),
(24,327,o),
(24,208,cs),
(24,72,o),
(126,-10,o),
(245,-10,cs),
(345,-10,o),
(405,46,o),
(430,89,c)
);
}
);
width = 425;
}
);
unicode = 99;
}
{
glyphname = d;
layers = (
{
hints = (
{
horizontal = 1;
place = (-9,56);
type = Stem;
},
{
horizontal = 1;
place = (384,49);
type = Stem;
},
{
horizontal = 1;
place = (730,-20);
target = down;
type = TopGhost;
},
{
place = (28,109);
type = Stem;
},
{
place = (375,145);
type = Stem;
}
);
layerId = "0245B36C-B88E-4C5F-8D6F-F0580B5CC529";
shapes = (
{
closed = 1;
nodes = (
(516,29,ls),
(516,36,o),
(511,36,o),
(493,43,cs),
(468,53,o),
(466,55,o),
(466,79,cs),
(466,730,l),
(312,722,l),
(312,700,ls),
(312,692,o),
(323,691,o),
(340,683,cs),
(364,672,o),
(370,664,o),
(370,642,cs),
(370,385,l),
(344,407,o),
(306,433,o),
(239,433,cs),
(127,433,o),
(24,350,o),
(24,212,cs),
(24,88,o),
(110,-9,o),
(239,-9,cs),
(300,-9,o),
(345,18,o),
(373,46,c),
(373,-2,l),
(516,7,l)
);
},
{
closed = 1;
nodes = (
(370,91,l),
(339,65,o),
(298,46,o),
(258,46,cs),
(189,46,o),
(128,95,o),
(128,214,cs),
(128,299,o),
(159,379,o),
(258,379,cs),
(309,379,o),
(344,358,o),
(370,330,c)
);
}
);
width = 547;
}
);
unicode = 100;
}
{
glyphname = e;
layers = (
{
hints = (
{
horizontal = 1;
place = (-10,56);
type = Stem;
},
{
horizontal = 1;
place = (225,49);
type = Stem;
},
{
horizontal = 1;
place = (389,49);
type = Stem;
},
{
place = (28,96);
type = Stem;
},
{
place = (356,96);
type = Stem;
}
);
layerId = "0245B36C-B88E-4C5F-8D6F-F0580B5CC529";
shapes = (
{
closed = 1;
nodes = (
(448,227,l),
(448,326,o),
(399,438,o),
(249,438,cs),
(106,438,o),
(24,321,o),
(24,208,cs),
(24,95,o),
(103,-10,o),
(251,-10,cs),
(351,-10,o),
(427,53,o),
(447,92,c),
(418,120,l),
(381,80,o),
(329,46,o),
(264,46,cs),
(165,46,o),
(121,125,o),
(121,227,c)
);
},
{
closed = 1;
nodes = (
(124,274,l),
(135,344,o),
(184,393,o),
(243,393,cs),
(320,393,o),
(346,339,o),
(351,274,c)
);
}
);
width = 467;
}
);
unicode = 101;
}
{
glyphname = f;
layers = (
{
hints = (
{
horizontal = 1;
place = (0,20);
type = Stem;
},
{
horizontal = 1;
place = (372,49);
type = Stem;
},
{
horizontal = 1;
place = (618,112);
type = Stem;
},
{
place = (92,145);
type = Stem;
},
{
place = (254,109);
type = Stem;
}
);
layerId = "0245B36C-B88E-4C5F-8D6F-F0580B5CC529";
shapes = (
{
closed = 1;
nodes = (
(359,699,o),
(337,730,o),
(279,730,cs),
(155,730,o),
(88,595,o),
(88,451,cs),
(88,430,o),
(85,424,o),
(71,417,c),
(44,407,o),
(37,404,o),
(37,395,cs),
(37,375,l),
(88,375,l),
(88,72,ls),
(88,47,o),
(87,48,o),
(63,37,cs),
(44,29,o),
(38,30,o),
(38,22,cs),
(38,0,l),
(237,0,l),
(237,22,ls),
(237,29,o),
(227,31,o),
(212,37,cs),
(186,48,o),
(184,47,o),
(184,72,cs),
(184,375,l),
(307,375,l),
(307,421,l),
(182,421,l),
(182,547,ls),
(182,671,o),
(235,681,o),
(248,685,c),
(250,639,o),
(282,621,o),
(305,621,cs),
(338,621,o),
(359,643,o),
(359,673,cs)
);
}
);
width = 305;
}
);
unicode = 102;
}
{
glyphname = g;
layers = (
{
hints = (
{
horizontal = 1;
place = (-199,49);
type = Stem;
},
{
horizontal = 1;
place = (-17,78);
type = Stem;
},
{
horizontal = 1;
place = (117,49);
type = Stem;
},
{
horizontal = 1;
place = (362,78);
type = Stem;
},
{
place = (43,109);
type = Stem;
},
{
place = (325,96);
type = Stem;
}
);
layerId = "0245B36C-B88E-4C5F-8D6F-F0580B5CC529";
shapes = (
{
closed = 1;
nodes = (
(497,427,o),
(474,440,o),
(447,440,cs),
(412,440,o),
(378,421,o),
(360,396,c),
(327,422,o),
(285,438,o),
(229,438,cs),
(120,438,o),
(35,372,o),
(35,279,cs),
(35,227,o),
(64,183,o),
(112,152,c),
(18,0,ls),
(14,-7,o),
(9,-12,o),
(9,-19,cs),
(9,-27,o),
(19,-29,o),
(27,-29,cs),
(37,-29,o),
(121,-17,o),
(205,-17,cs),
(306,-17,o),
(360,-33,o),
(360,-73,cs),
(360,-138,o),
(272,-155,o),
(215,-155,cs),
(185,-155,o),
(155,-146,o),
(148,-143,c),
(148,-107,o),
(136,-75,o),
(96,-75,cs),
(63,-75,o),
(39,-94,o),
(39,-121,cs),
(39,-171,o),
(100,-199,o),
(215,-199,cs),
(340,-199,o),
(447,-145,o),
(447,-56,cs),
(447,11,o),
(400,63,o),
(228,63,cs),
(166,63,o),
(134,59,o),
(107,57,c),
(151,133,l),
(170,127,o),
(204,122,o),
(226,122,cs),
(347,122,o),
(417,196,o),
(417,279,cs),
(417,307,o),
(411,337,o),
(385,371,c),
(389,377,o),
(398,381,o),
(406,381,cs),
(414,381,o),
(421,376,o),
(427,372,cs),
(433,368,o),
(443,361,o),
(459,361,cs),
(476,361,o),
(497,377,o),
(497,399,cs)
);
},
{
closed = 1;
nodes = (
(324,219,o),
(289,166,o),
(231,166,cs),
(168,166,o),
(130,209,o),
(130,281,cs),
(130,338,o),
(158,392,o),
(227,392,cs),
(295,392,o),
(324,340,o),
(324,281,cs)
);
}
);
width = 486;
}
);
unicode = 103;
}
{
glyphname = h;
layers = (
{
hints = (
{
horizontal = 1;
place = (0,20);
type = Stem;
},
{
horizontal = 1;
place = (377,56);
type = Stem;
},
{
horizontal = 1;
place = (730,-20);
target = down;
type = TopGhost;
},
{
place = (85,145);
type = Stem;
},
{
place = (393,145);
type = Stem;
}
);
layerId = "0245B36C-B88E-4C5F-8D6F-F0580B5CC529";
shapes = (
{
closed = 1;
nodes = (
(536,22,ls),
(536,29,o),
(531,29,o),
(513,37,cs),
(487,48,o),
(486,47,o),
(486,72,cs),
(486,289,ls),
(486,377,o),
(428,433,o),
(328,433,cs),
(258,433,o),
(211,405,o),
(177,374,c),
(177,730,l),
(29,722,l),
(29,700,ls),
(29,692,o),
(36,691,o),
(55,683,cs),
(78,672,o),
(81,664,o),
(81,642,cs),
(81,72,ls),
(81,47,o),
(80,48,o),
(56,37,cs),
(37,29,o),
(32,30,o),
(32,22,cs),
(32,0,l),
(226,0,l),
(226,22,ls),
(226,29,o),
(221,29,o),
(203,37,cs),
(179,48,o),
(177,47,o),
(177,72,cs),
(177,323,l),
(207,358,o),
(249,377,o),
(293,377,cs),
(345,377,o),
(389,349,o),
(389,288,cs),
(389,72,ls),
(389,47,o),
(388,48,o),
(363,37,cs),
(345,29,o),
(339,30,o),
(339,22,cs),
(339,0,l),
(536,0,l)
);
}
);
width = 562;
}
);
unicode = 104;
}
{
glyphname = i;
layers = (
{
hints = (
{
horizontal = 1;
place = (0,20);
type = Stem;
},
{
horizontal = 1;
place = (565,120);
type = Stem;
},
{
place = (93,145);
type = Stem;
}
);
layerId = "0245B36C-B88E-4C5F-8D6F-F0580B5CC529";
shapes = (
{
closed = 1;
nodes = (
(196,656,o),
(169,685,o),
(133,685,cs),
(99,685,o),
(71,656,o),
(71,622,cs),
(71,589,o),
(99,561,o),
(133,561,cs),
(169,561,o),
(196,589,o),
(196,622,cs)
);
},
{
closed = 1;
nodes = (
(234,22,ls),
(234,29,o),
(228,29,o),
(211,37,cs),
(186,48,o),
(185,47,o),
(185,72,cs),
(185,430,l),
(37,422,l),
(37,400,ls),
(37,393,o),
(42,391,o),
(62,385,cs),
(86,377,o),
(89,368,o),
(89,344,cs),
(89,72,ls),
(89,47,o),
(88,48,o),
(64,37,cs),
(45,29,o),
(39,30,o),
(39,22,cs),
(39,0,l),
(234,0,l)
);
}
);
width = 267;
}
);
unicode = 105;
}
{
glyphname = j;
layers = (
{
hints = (
{
horizontal = 1;
place = (-198,103);
type = Stem;
},
{
horizontal = 1;
place = (565,120);
type = Stem;
},
{
place = (69,121);
type = Stem;
}
);
layerId = "0245B36C-B88E-4C5F-8D6F-F0580B5CC529";
shapes = (
{
closed = 1;
nodes = (
(191,656,o),
(164,685,o),
(129,685,cs),
(94,685,o),
(66,656,o),
(66,622,cs),
(66,589,o),
(94,561,o),
(129,561,cs),
(164,561,o),
(191,589,o),
(191,622,cs)
);
},
{
closed = 1;
nodes = (
(186,430,l),
(34,422,l),
(34,400,ls),
(34,393,o),
(41,391,o),
(61,385,cs),
(85,377,o),
(90,369,o),
(90,345,cs),
(90,-39,ls),
(90,-141,o),
(55,-157,o),
(36,-160,c),
(31,-113,o),
(3,-93,o),
(-20,-93,cs),
(-56,-93,o),
(-75,-114,o),
(-75,-143,cs),
(-75,-171,o),
(-47,-198,o),
(6,-198,cs),
(129,-198,o),
(186,-89,o),
(186,56,cs)
);
}
);
width = 254;
}
);
unicode = 106;
}
{
glyphname = k;
layers = (
{
hints = (
{
horizontal = 1;
place = (0,20);
type = Stem;
},
{
horizontal = 1;
place = (730,-20);
target = down;
type = TopGhost;
},
{
place = (85,145);
type = Stem;
},
{
place = (288,215);
type = Stem;
}
);
layerId = "0245B36C-B88E-4C5F-8D6F-F0580B5CC529";
shapes = (
{
closed = 1;
nodes = (
(518,22,ls),
(518,28,o),
(511,32,o),
(492,39,cs),
(474,45,o),
(463,53,o),
(436,88,cs),
(296,267,l),
(388,341,o),
(412,362,o),
(473,383,cs),
(486,388,o),
(499,392,o),
(499,400,cs),
(499,421,l),
(284,421,l),
(284,401,ls),
(284,395,o),
(288,392,o),
(307,386,cs),
(328,380,o),
(338,374,o),
(338,367,cs),
(338,362,o),
(318,340,o),
(308,332,cs),
(177,219,l),
(177,730,l),
(29,722,l),
(29,700,ls),
(29,692,o),
(36,691,o),
(55,683,cs),
(78,672,o),
(81,665,o),
(81,642,cs),
(81,72,ls),
(81,47,o),
(80,48,o),
(56,37,cs),
(37,29,o),
(32,30,o),
(32,22,cs),
(32,0,l),
(225,0,l),
(225,22,ls),
(225,29,o),
(220,29,o),
(201,37,cs),
(177,48,o),
(176,47,o),
(176,72,cs),
(176,171,l),
(227,213,l),
(331,78,ls),
(337,70,o),
(346,56,o),
(346,50,cs),
(346,44,o),
(344,39,o),
(331,34,cs),
(314,28,o),
(306,27,o),
(306,21,cs),
(306,0,l),
(518,0,l)
);
}
);
width = 511;
}
);
unicode = 107;
}
{
glyphname = l;
layers = (
{
hints = (
{
horizontal = 1;
place = (0,20);
type = Stem;
},
{
horizontal = 1;
place = (730,-20);
target = down;
type = TopGhost;
},
{
place = (86,145);
type = Stem;
}
);
layerId = "0245B36C-B88E-4C5F-8D6F-F0580B5CC529";
shapes = (
{
closed = 1;
nodes = (
(226,22,ls),
(226,29,o),
(221,29,o),
(203,37,cs),
(179,48,o),
(178,47,o),
(178,72,cs),
(178,730,l),
(31,722,l),
(31,700,ls),
(31,692,o),
(37,691,o),
(56,683,cs),
(79,672,o),
(82,663,o),
(82,645,cs),
(82,72,ls),
(82,47,o),
(81,47,o),
(58,37,cs),
(38,28,o),
(33,30,o),
(33,22,cs),
(33,0,l),
(226,0,l)
);
}
);
width = 259;
}
);
unicode = 108;
}
{
glyphname = m;
layers = (
{
hints = (
{
horizontal = 1;
place = (0,20);
type = Stem;
},
{
horizontal = 1;
place = (377,56);
type = Stem;
},
{
place = (42,145);
type = Stem;
},
{
place = (386,145);
type = Stem;
},
{
place = (680,145);
type = Stem;
}
);
layerId = "0245B36C-B88E-4C5F-8D6F-F0580B5CC529";
shapes = (
{
closed = 1;
nodes = (
(822,22,ls),
(822,29,o),
(817,28,o),
(797,37,cs),
(774,47,o),
(773,47,o),
(773,72,cs),
(773,289,ls),
(773,377,o),
(711,433,o),
(611,433,cs),
(547,433,o),
(505,408,o),
(458,367,c),
(433,409,o),
(387,433,o),
(322,433,cs),
(249,433,o),
(212,401,o),
(183,372,c),
(183,430,l),
(36,422,l),
(36,400,ls),
(36,393,o),
(41,391,o),
(61,385,cs),
(85,377,o),
(88,368,o),
(88,344,cs),
(88,72,ls),
(88,47,o),
(87,48,o),
(63,37,cs),
(44,29,o),
(38,30,o),
(38,22,cs),
(38,0,l),
(233,0,l),
(233,22,ls),
(233,29,o),
(227,29,o),
(210,37,cs),
(185,48,o),
(184,47,o),
(184,72,cs),
(184,327,l),
(204,358,o),
(252,377,o),
(289,377,cs),
(348,377,o),
(382,344,o),
(382,288,cs),
(382,72,ls),
(382,47,o),
(381,48,o),
(356,37,cs),
(337,29,o),
(332,30,o),
(332,22,cs),
(332,0,l),
(527,0,l),
(527,22,ls),
(527,29,o),
(522,29,o),
(505,37,cs),
(479,48,o),
(478,47,o),
(478,72,cs),
(478,329,l),
(498,360,o),
(547,377,o),
(583,377,cs),
(643,377,o),
(676,344,o),
(676,288,cs),
(676,72,ls),
(676,47,o),
(675,48,o),
(650,37,cs),
(633,29,o),
(628,30,o),
(628,22,cs),
(628,0,l),
(822,0,l)
);
}
);
width = 849;
}
);
unicode = 109;
}
{
glyphname = n;
layers = (
{
hints = (
{
horizontal = 1;
place = (0,20);
type = Stem;
},
{
horizontal = 1;
place = (377,56);
type = Stem;
},
{
place = (40,145);
type = Stem;
},
{
place = (400,145);
type = Stem;
}
);
layerId = "0245B36C-B88E-4C5F-8D6F-F0580B5CC529";
shapes = (
{
closed = 1;
nodes = (
(542,22,ls),
(542,29,o),
(536,29,o),
(519,37,cs),
(494,48,o),
(493,47,o),
(493,72,cs),
(493,289,ls),
(493,377,o),
(434,433,o),
(334,433,cs),
(265,433,o),
(211,403,o),
(177,372,c),
(177,430,l),
(36,422,l),
(36,400,ls),
(36,393,o),
(41,391,o),
(61,385,cs),
(85,377,o),
(88,368,o),
(88,344,cs),
(88,72,ls),
(88,47,o),
(87,48,o),
(63,37,cs),
(44,29,o),
(38,30,o),
(38,22,cs),
(38,0,l),
(233,0,l),
(233,22,ls),
(233,29,o),
(227,29,o),
(210,37,cs),
(185,48,o),
(184,47,o),
(184,72,cs),
(184,323,l),
(208,355,o),
(255,377,o),
(299,377,cs),
(353,377,o),
(396,349,o),
(396,288,cs),
(396,72,ls),
(396,47,o),
(396,48,o),
(370,37,cs),
(352,29,o),
(346,30,o),
(346,22,cs),
(346,0,l),
(542,0,l)
);
}
);
width = 569;
}
);
unicode = 110;
}
{
glyphname = o;
layers = (
{
hints = (
{
horizontal = 1;
place = (-10,49);
type = Stem;
},
{
horizontal = 1;
place = (389,49);
type = Stem;
},
{
place = (28,109);
type = Stem;
},
{
place = (380,109);
type = Stem;
}
);
layerId = "0245B36C-B88E-4C5F-8D6F-F0580B5CC529";
shapes = (
{
closed = 1;
nodes = (
(485,343,o),
(389,438,o),
(254,438,cs),
(119,438,o),
(24,343,o),
(24,214,cs),
(24,83,o),
(119,-10,o),
(254,-10,cs),
(389,-10,o),
(485,85,o),
(485,214,cs)
);
},
{
closed = 1;
nodes = (
(381,102,o),
(337,37,o),
(254,37,cs),
(172,37,o),
(128,102,o),
(128,214,cs),
(128,325,o),
(172,391,o),
(254,391,cs),
(337,391,o),
(381,325,o),
(381,214,cs)
);
}
);
width = 509;
}
);
unicode = 111;
}
{
glyphname = p;
layers = (
{
hints = (
{
horizontal = 1;
place = (-10,49);
type = Stem;
},
{
horizontal = 1;
place = (377,56);
type = Stem;
},
{
place = (36,145);
type = Stem;
},
{
place = (414,109);
type = Stem;
}
);
layerId = "0245B36C-B88E-4C5F-8D6F-F0580B5CC529";
shapes = (
{
closed = 1;
nodes = (
(519,349,o),
(424,433,o),
(311,433,cs),
(248,433,o),
(197,400,o),
(173,374,c),
(173,430,l),
(32,422,l),
(32,400,ls),
(32,393,o),
(37,391,o),
(56,385,cs),
(80,377,o),
(83,368,o),
(83,344,cs),
(83,-120,ls),
(83,-144,o),
(82,-143,o),
(59,-155,c),
(39,-163,o),
(34,-162,o),
(34,-170,cs),
(34,-192,l),
(228,-192,l),
(228,-170,ls),
(228,-163,o),
(222,-163,o),
(205,-155,cs),
(180,-143,o),
(179,-144,o),
(179,-120,cs),
(179,33,l),
(205,15,o),
(245,-10,o),
(305,-10,cs),
(432,-10,o),
(519,101,o),
(519,218,cs)
);
},
{
closed = 1;
nodes = (
(415,95,o),
(361,44,o),
(290,44,cs),
(241,44,o),
(203,65,o),
(179,88,c),
(179,325,l),
(197,349,o),
(242,378,o),
(293,378,cs),
(360,378,o),
(415,323,o),
(415,224,cs)
);
}
);
width = 543;
}
);
unicode = 112;
}
{
glyphname = q;
layers = (
{
hints = (
{
horizontal = 1;
place = (-4,49);
type = Stem;
},
{
horizontal = 1;
place = (389,49);
type = Stem;
},
{
place = (28,109);
type = Stem;
},
{
place = (366,145);
type = Stem;
}
);
layerId = "0245B36C-B88E-4C5F-8D6F-F0580B5CC529";
shapes = (
{
closed = 1;
nodes = (
(508,-170,ls),
(508,-163,o),
(501,-163,o),
(483,-155,cs),
(458,-143,o),
(458,-144,o),
(458,-120,cs),
(458,427,ls),
(458,434,o),
(453,438,o),
(446,438,cs),
(442,438,o),
(435,436,o),
(432,433,cs),
(399,401,ls),
(394,397,o),
(384,398,o),
(376,402,cs),
(340,423,o),
(305,438,o),
(255,438,cs),
(137,438,o),
(24,347,o),
(24,215,cs),
(24,94,o),
(109,-4,o),
(239,-4,cs),
(299,-4,o),
(336,24,o),
(362,44,c),
(362,-120,ls),
(362,-144,o),
(361,-143,o),
(336,-155,cs),
(319,-163,o),
(312,-162,o),
(312,-170,cs),
(312,-192,l),
(508,-192,l)
);
},
{
closed = 1;
nodes = (
(362,89,l),
(335,65,o),
(297,49,o),
(257,49,cs),
(192,49,o),
(128,93,o),
(128,219,cs),
(128,341,o),
(196,388,o),
(268,388,cs),
(309,388,o),
(345,369,o),
(362,353,c)
);
}
);
width = 529;
}
);
unicode = 113;
}
{
glyphname = r;
layers = (
{
hints = (
{
horizontal = 1;
place = (0,20);
type = Stem;
},
{
horizontal = 1;
place = (321,112);
type = Stem;
},
{
place = (40,145);
type = Stem;
}
);
layerId = "0245B36C-B88E-4C5F-8D6F-F0580B5CC529";
shapes = (
{
closed = 1;
nodes = (
(379,405,o),
(358,433,o),
(314,433,cs),
(271,433,o),
(226,403,o),
(176,335,c),
(176,430,l),
(36,422,l),
(36,400,ls),
(36,393,o),
(41,391,o),
(61,385,cs),
(85,377,o),
(88,368,o),
(88,344,cs),
(88,72,ls),
(88,47,o),
(87,48,o),
(63,37,cs),
(44,29,o),
(38,30,o),
(38,22,cs),
(38,0,l),
(238,0,l),
(238,22,ls),
(238,29,o),
(228,31,o),
(213,37,cs),
(187,48,o),
(183,47,o),
(183,72,cs),
(183,236,ls),
(183,301,o),
(231,361,o),
(271,364,c),
(280,339,o),
(298,320,o),
(324,320,cs),
(362,320,o),
(379,349,o),
(379,378,cs)
);
}
);
width = 372;
}
);
unicode = 114;
}
{
glyphname = s;
layers = (
{
hints = (
{
horizontal = 1;
place = (-10,43);
type = Stem;
},
{
horizontal = 1;
place = (393,43);
type = Stem;
},
{
place = (31,109);
type = Stem;
},
{
place = (259,109);
type = Stem;
}
);
layerId = "0245B36C-B88E-4C5F-8D6F-F0580B5CC529";
shapes = (
{
closed = 1;
nodes = (
(393,184,o),
(363,214,o),
(267,247,cs),
(176,278,o),
(134,294,o),
(134,333,cs),
(134,369,o),
(168,394,o),
(207,394,cs),
(241,394,o),
(257,388,o),
(264,386,c),
(262,379,o),
(259,364,o),
(259,358,cs),
(259,331,o),
(280,309,o),
(311,309,cs),
(340,309,o),
(364,328,o),
(364,362,cs),
(364,395,o),
(317,436,o),
(214,436,cs),
(130,436,o),
(50,376,o),
(50,312,cs),
(50,258,o),
(76,216,o),
(173,185,cs),
(250,160,o),
(308,144,o),
(308,102,cs),
(308,58,o),
(266,32,o),
(221,32,cs),
(189,32,o),
(146,42,o),
(127,56,c),
(130,62,o),
(136,76,o),
(136,90,cs),
(136,109,o),
(122,139,o),
(83,139,cs),
(45,139,o),
(27,113,o),
(27,84,cs),
(27,38,o),
(103,-10,o),
(209,-10,cs),
(330,-10,o),
(393,66,o),
(393,121,cs)
);
}
);
width = 415;
}
);
unicode = 115;
}
{
glyphname = t;
layers = (
{
hints = (
{
horizontal = 1;
place = (-10,56);
type = Stem;
},
{
horizontal = 1;
place = (372,49);
type = Stem;
},
{
place = (80,96);
type = Stem;
}
);
layerId = "0245B36C-B88E-4C5F-8D6F-F0580B5CC529";
shapes = (
{
closed = 1;
nodes = (
(283,61,l),
(263,53,o),
(237,45,o),
(222,45,cs),
(188,45,o),
(172,62,o),
(172,91,cs),
(172,374,l),
(285,374,l),
(285,421,l),
(172,421,l),
(172,569,l),
(93,559,ls),
(87,558,o),
(81,551,o),
(81,545,cs),
(81,448,ls),
(81,430,o),
(75,425,o),
(58,419,cs),
(31,409,o),
(23,407,o),
(23,399,cs),
(23,374,l),
(76,374,l),
(76,89,ls),
(76,33,o),
(100,-10,o),
(183,-10,cs),
(235,-10,o),
(289,13,o),
(302,25,c)
);
}
);
width = 305;
}
);
unicode = 116;
}
{
glyphname = u;
layers = (
{
hints = (
{
horizontal = 1;
place = (-10,56);
type = Stem;
},
{
horizontal = 1;
place = (430,-20);
target = down;
type = TopGhost;
},
{
place = (81,96);
type = Stem;
},
{
place = (400,136);
type = Stem;
}
);
layerId = "0245B36C-B88E-4C5F-8D6F-F0580B5CC529";
shapes = (
{
closed = 1;
nodes = (
(532,29,ls),
(532,36,o),
(526,36,o),
(509,43,cs),
(483,54,o),
(481,55,o),
(481,79,cs),
(481,430,l),
(331,422,l),
(331,400,ls),
(331,393,o),
(337,391,o),
(356,385,cs),
(380,377,o),
(385,370,o),
(385,346,cs),
(385,101,l),
(361,69,o),
(316,46,o),
(271,46,cs),
(218,46,o),
(174,74,o),
(174,135,cs),
(174,430,l),
(25,422,l),
(25,400,ls),
(25,393,o),
(31,391,o),
(48,385,cs),
(74,377,o),
(77,370,o),
(77,346,cs),
(77,144,ls),
(77,57,o),
(135,-10,o),
(235,-10,cs),
(311,-10,o),
(360,22,o),
(395,54,c),
(395,-2,l),
(532,7,l)
);
}
);
width = 562;
}
);
unicode = 117;
}
{
glyphname = v;
layers = (
{
hints = (
{
horizontal = 1;
place = (-8,20);
type = Stem;
},
{
horizontal = 1;
place = (421,-20);
target = down;
type = TopGhost;
},
{
place = (-1,201);
type = Stem;
},
{
place = (327,170);
type = Stem;
}
);
layerId = "0245B36C-B88E-4C5F-8D6F-F0580B5CC529";
shapes = (
{
closed = 1;
nodes = (
(493,421,l),
(319,421,l),
(319,400,ls),
(319,394,o),
(326,389,o),
(339,384,cs),
(363,375,o),
(372,367,o),
(372,358,cs),
(372,351,o),
(368,338,o),
(365,332,cs),
(265,102,l),
(163,333,ls),
(158,344,o),
(153,356,o),
(153,360,cs),
(153,369,o),
(154,378,o),
(176,385,cs),
(194,391,o),
(200,392,o),
(200,399,cs),
(200,421,l),
(-5,421,l),
(-5,399,ls),
(-5,392,o),
(1,392,o),
(19,384,cs),
(40,374,o),
(44,365,o),
(48,357,cs),
(219,-2,ls),
(221,-7,o),
(225,-8,o),
(230,-8,cs),
(260,-8,ls),
(264,-8,o),
(267,-7,o),
(270,-2,c),
(422,325,ls),
(436,354,o),
(445,372,o),
(472,384,cs),
(483,389,o),
(493,392,o),
(493,399,cs)
);
}
);
width = 482;
}
);
unicode = 118;
}
{
glyphname = w;
layers = (
{
hints = (
{
horizontal = 1;
place = (-7,20);
type = Stem;
},
{
horizontal = 1;
place = (421,-20);
target = down;
type = TopGhost;
},
{
place = (0,201);
type = Stem;
},
{
place = (569,170);
type = Stem;
}
);
layerId = "0245B36C-B88E-4C5F-8D6F-F0580B5CC529";
shapes = (
{
closed = 1;
nodes = (
(735,421,l),
(560,421,l),
(560,400,ls),
(560,394,o),
(568,389,o),
(582,384,cs),
(606,375,o),
(614,368,o),
(614,359,cs),
(614,353,o),
(609,340,o),
(606,331,cs),
(526,107,l),
(409,421,l),
(364,421,l),
(245,107,l),
(158,336,ls),
(155,344,o),
(152,358,o),
(152,361,cs),
(152,369,o),
(153,378,o),
(175,385,cs),
(193,391,o),
(198,392,o),
(198,399,cs),
(198,421,l),
(-4,421,l),
(-4,399,ls),
(-4,392,o),
(2,392,o),
(20,384,cs),
(41,374,o),
(48,368,o),
(53,357,cs),
(201,-1,ls),
(203,-6,o),
(209,-7,o),
(214,-7,cs),
(245,-7,ls),
(250,-7,o),
(253,-6,o),
(255,-1,cs),
(366,291,l),
(480,-1,ls),
(482,-6,o),
(489,-7,o),
(494,-7,cs),
(522,-7,ls),
(526,-7,o),
(530,-6,o),
(532,-1,cs),
(665,329,ls),
(675,354,o),
(686,372,o),
(713,384,cs),
(725,389,o),
(735,392,o),
(735,399,cs)
);
}
);
width = 729;
}
);
unicode = 119;
}
{
glyphname = x;
layers = (
{
hints = (
{
horizontal = 1;
place = (0,20);
type = Stem;
},
{
horizontal = 1;
place = (421,-20);
target = down;
type = TopGhost;
},
{
place = (1,183);
type = Stem;
},
{
place = (304,183);
type = Stem;
}
);
layerId = "0245B36C-B88E-4C5F-8D6F-F0580B5CC529";
shapes = (
{
closed = 1;
nodes = (
(499,19,ls),
(499,26,o),
(494,29,o),
(480,36,cs),
(460,46,o),
(455,49,o),
(440,66,cs),
(293,231,l),
(384,332,ls),
(409,359,o),
(416,370,o),
(455,382,cs),
(478,389,o),
(483,392,o),
(483,399,cs),
(483,421,l),
(302,421,l),
(302,399,ls),
(302,391,o),
(305,393,o),
(326,383,cs),
(336,379,o),
(343,374,o),
(343,370,cs),
(343,365,o),
(338,356,o),
(332,348,cs),
(263,264,l),
(186,356,ls),
(179,364,o),
(174,372,o),
(174,377,cs),
(174,380,o),
(181,384,o),
(185,386,cs),
(195,391,o),
(202,396,o),
(202,402,cs),
(202,421,l),
(10,421,l),
(10,402,ls),
(10,395,o),
(17,392,o),
(29,385,cs),
(48,375,o),
(57,373,o),
(72,356,cs),
(204,206,l),
(98,89,ls),
(77,66,o),
(69,54,o),
(24,39,cs),
(1,31,o),
(-3,29,o),
(-3,22,cs),
(-3,0,l),
(180,0,l),
(180,22,ls),
(180,29,o),
(176,28,o),
(154,38,cs),
(143,43,o),
(136,46,o),
(136,53,cs),
(136,57,o),
(142,66,o),
(148,73,cs),
(233,173,l),
(324,66,ls),
(331,58,o),
(336,49,o),
(336,44,cs),
(336,41,o),
(330,37,o),
(325,35,cs),
(316,30,o),
(308,25,o),
(308,19,cs),
(308,0,l),
(499,0,l)
);
}
);
width = 500;
}
);
unicode = 120;
}
{
glyphname = y;
layers = (
{
hints = (
{
horizontal = 1;
place = (-198,112);
type = Stem;
},
{
horizontal = 1;
place = (421,-20);
target = down;
type = TopGhost;
},
{
place = (-1,201);
type = Stem;
},
{
place = (327,170);
type = Stem;
}
);
layerId = "0245B36C-B88E-4C5F-8D6F-F0580B5CC529";
shapes = (
{
closed = 1;
nodes = (
(493,421,l),
(319,421,l),
(319,400,ls),
(319,394,o),
(326,389,o),
(339,384,cs),
(363,375,o),
(372,367,o),
(372,358,cs),
(372,351,o),
(369,342,o),
(365,332,cs),
(265,99,l),
(162,335,ls),
(158,343,o),
(153,356,o),
(153,360,cs),
(153,368,o),
(154,378,o),
(176,385,cs),
(194,391,o),
(200,392,o),
(200,399,cs),
(200,421,l),
(-5,421,l),
(-5,399,ls),
(-5,392,o),
(1,392,o),
(19,384,cs),
(40,374,o),
(44,365,o),
(48,357,cs),
(216,-4,l),
(197,-50,o),
(158,-131,o),
(117,-137,c),
(114,-116,o),
(99,-86,o),
(66,-86,cs),
(34,-86,o),
(9,-104,o),
(9,-139,cs),
(9,-173,o),
(37,-198,o),
(90,-198,cs),
(136,-198,o),
(197,-167,o),
(263,-22,cs),
(422,325,ls),
(435,354,o),
(445,372,o),
(472,384,cs),
(483,389,o),
(493,392,o),
(493,399,cs)
);
}
);
width = 481;
}
);
unicode = 121;
}
{
glyphname = z;
layers = (
{
hints = (
{
horizontal = 1;
place = (0,43);
type = Stem;
},
{
horizontal = 1;
place = (378,43);
type = Stem;
}
);
layerId = "0245B36C-B88E-4C5F-8D6F-F0580B5CC529";
shapes = (
{
closed = 1;
nodes = (
(413,130,l),
(384,130,ls),
(374,130,o),
(367,126,o),
(363,113,cs),
(348,68,o),
(334,43,o),
(296,43,cs),
(134,43,l),
(392,362,ls),
(401,373,o),
(403,383,o),
(403,393,cs),
(403,421,l),
(114,421,ls),
(92,421,o),
(53,424,o),
(41,425,c),
(41,302,l),
(69,302,ls),
(78,302,o),
(86,307,o),
(88,313,cs),
(104,363,o),
(120,378,o),
(162,378,cs),
(299,378,l),
(28,42,ls),
(21,33,o),
(15,24,o),
(15,13,cs),
(15,0,l),
(342,0,ls),
(361,0,o),
(400,-3,o),
(413,-4,c)
);
}
);
width = 433;
}
);
unicode = 122;
}
{
glyphname = braceleft;
layers = (
{
hints = (
{
horizontal = 1;
place = (733,-20);
target = down;
type = TopGhost;
},
{
place = (130,96);
type = Stem;
}
);
layerId = "0245B36C-B88E-4C5F-8D6F-F0580B5CC529";
shapes = (
{
closed = 1;
nodes = (
(366,-166,l),
(254,-139,o),
(221,-96,o),
(221,-14,cs),
(221,33,o),
(226,67,o),
(226,101,cs),
(226,184,o),
(160,244,o),
(92,269,c),
(160,294,o),
(226,352,o),
(226,435,cs),
(226,469,o),
(221,503,o),
(221,550,cs),
(221,632,o),
(254,675,o),
(366,702,c),
(366,733,l),
(224,733,o),
(126,645,o),
(126,531,cs),
(126,489,o),
(134,448,o),
(134,410,cs),
(134,340,o),
(104,298,o),
(27,284,c),
(27,253,l),
(104,239,o),
(134,196,o),
(134,126,cs),
(134,88,o),
(126,47,o),
(126,5,cs),
(126,-109,o),
(224,-197,o),
(366,-197,c)
);
}
);
width = 397;
}
);
unicode = 123;
}
{
glyphname = bar;
layers = (
{
hints = (
{
horizontal = 1;
place = (730,-20);
target = down;
type = TopGhost;
},
{
place = (0,68);
type = Stem;
}
);
layerId = "0245B36C-B88E-4C5F-8D6F-F0580B5CC529";
shapes = (
{
closed = 1;
nodes = (
(65,730,l),
(-4,730,l),
(-4,-190,l),
(65,-190,l)
);
}
);
width = 61;
}
);
unicode = 124;
}
{
glyphname = braceright;
layers = (
{
hints = (
{
horizontal = 1;
place = (733,-20);
target = down;
type = TopGhost;
},
{
place = (179,96);
type = Stem;
}
);
layerId = "0245B36C-B88E-4C5F-8D6F-F0580B5CC529";
shapes = (
{
closed = 1;
nodes = (
(369,284,l),
(293,298,o),
(262,340,o),
(262,410,cs),
(262,448,o),
(271,489,o),
(271,531,cs),
(271,645,o),
(173,733,o),
(30,733,c),
(30,702,l),
(142,675,o),
(176,632,o),
(176,550,cs),
(176,503,o),
(171,469,o),
(171,435,cs),
(171,352,o),
(236,294,o),
(304,269,c),
(236,244,o),
(171,184,o),
(171,101,cs),
(171,67,o),
(176,33,o),
(176,-14,cs),
(176,-96,o),
(142,-139,o),
(30,-166,c),
(30,-197,l),
(173,-197,o),
(271,-109,o),
(271,5,cs),
(271,47,o),
(262,88,o),
(262,126,cs),
(262,196,o),
(293,239,o),
(369,253,c)
);
}
);
width = 397;
}
);
unicode = 125;
}
{
glyphname = asciitilde;
layers = (
{
hints = (
{
horizontal = 1;
place = (201,87);
type = Stem;
},
{
horizontal = 1;
place = (306,87);
type = Stem;
}
);
layerId = "0245B36C-B88E-4C5F-8D6F-F0580B5CC529";
shapes = (
{
closed = 1;
nodes = (
(602,402,l),
(595,351,o),
(571,289,o),
(513,289,cs),
(480,289,o),
(447,319,o),
(402,349,cs),
(357,380,o),
(334,393,o),
(284,393,cs),
(188,393,o),
(119,301,o),
(114,194,c),
(164,194,l),
(171,245,o),
(196,307,o),
(253,307,cs),
(290,307,o),
(322,281,o),
(366,251,cs),
(418,215,o),
(443,201,o),
(482,201,cs),
(580,201,o),
(647,295,o),
(652,402,c)
);
}
);
width = 766;
}
);
unicode = 126;
}
{
glyphname = exclamdown;
layers = (
{
hints = (
{
horizontal = 1;
place = (413,134);
type = Stem;
},
{
place = (86,87);
type = Stem;
}
);
layerId = "0245B36C-B88E-4C5F-8D6F-F0580B5CC529";
shapes = (
{
closed = 1;
nodes = (
(216,517,o),
(187,547,o),
(149,547,cs),
(110,547,o),
(80,517,o),
(80,480,cs),
(80,444,o),
(110,414,o),
(149,414,cs),
(187,414,o),
(216,444,o),
(216,480,cs)
);
},
{
closed = 1;
nodes = (
(213,-59,o),
(197,-13,o),
(184,88,cs),
(172,179,o),
(172,264,o),
(169,330,c),
(169,335,o),
(160,341,o),
(148,341,cs),
(135,341,o),
(128,335,o),
(128,330,c),
(125,265,o),
(125,179,o),
(113,88,cs),
(100,-13,o),
(83,-58,o),
(83,-120,cs),
(83,-160,o),
(102,-200,o),
(149,-200,cs),
(195,-200,o),
(213,-160,o),
(213,-120,cs)
);
}
);
width = 297;
}
);
unicode = 161;
}
{
glyphname = sterling;
layers = (
{
hints = (
{
horizontal = 1;
place = (-10,87);
type = Stem;
},
{
horizontal = 1;
place = (148,49);
type = Stem;
},
{
horizontal = 1;
place = (325,49);
type = Stem;
},
{
horizontal = 1;
place = (646,49);
type = Stem;
},
{
place = (28,50);
type = Stem;
},
{
place = (129,109);
type = Stem;
},
{
place = (425,121);
type = Stem;
}
);
layerId = "0245B36C-B88E-4C5F-8D6F-F0580B5CC529";
shapes = (
{
closed = 1;
nodes = (
(560,123,l),
(532,94,o),
(486,80,o),
(452,80,cs),
(393,80,o),
(346,109,o),
(298,138,c),
(308,171,o),
(311,206,o),
(311,237,cs),
(311,266,o),
(304,294,o),
(292,324,c),
(466,324,l),
(466,374,l),
(271,374,l),
(252,421,o),
(231,468,o),
(231,511,cs),
(231,600,o),
(290,647,o),
(372,647,cs),
(405,647,o),
(430,641,o),
(458,618,c),
(432,599,o),
(424,583,o),
(424,562,cs),
(424,525,o),
(454,510,o),
(483,510,cs),
(512,510,o),
(542,529,o),
(542,576,cs),
(542,641,o),
(469,695,o),
(364,695,cs),
(220,695,o),
(125,592,o),
(125,490,cs),
(125,445,o),
(135,407,o),
(151,374,c),
(49,374,l),
(49,324,l),
(175,324,l),
(178,318,o),
(182,314,o),
(185,308,cs),
(200,282,o),
(230,233,o),
(236,172,c),
(208,185,o),
(177,195,o),
(144,195,cs),
(85,195,o),
(24,159,o),
(24,87,cs),
(24,25,o),
(81,-10,o),
(133,-10,cs),
(198,-10,o),
(243,27,o),
(272,77,c),
(314,35,o),
(358,-10,o),
(431,-10,cs),
(510,-10,o),
(554,40,o),
(590,89,c)
);
},
{
closed = 1;
nodes = (
(218,64,o),
(177,33,o),
(135,33,cs),
(93,33,o),
(74,59,o),
(74,89,cs),
(74,120,o),
(101,148,o),
(142,148,cs),
(179,148,o),
(207,133,o),
(230,114,c)
);
}
);
width = 575;
}
);
unicode = 163;
}
{
glyphname = degree;
layers = (
{
hints = (
{
horizontal = 1;
place = (452,49);
type = Stem;
},
{
horizontal = 1;
place = (681,49);
type = Stem;
},
{
place = (33,59);
type = Stem;
},
{
place = (254,59);
type = Stem;
}
);
layerId = "0245B36C-B88E-4C5F-8D6F-F0580B5CC529";
shapes = (
{
closed = 1;
nodes = (
(309,668,o),
(246,730,o),
(169,730,cs),
(92,730,o),
(29,668,o),
(29,591,cs),
(29,514,o),
(92,452,o),
(169,452,cs),
(246,452,o),
(309,514,o),
(309,591,cs)
);
},
{
closed = 1;
nodes = (
(250,545,o),
(218,504,o),
(169,504,cs),
(120,504,o),
(88,545,o),
(88,591,cs),
(88,637,o),
(120,678,o),
(169,678,cs),
(218,678,o),
(250,637,o),
(250,591,cs)
);
}
);
width = 338;
}
);
unicode = 176;
}
{
glyphname = plusminus;
layers = (
{
hints = (
{
horizontal = 1;
place = (421,73);
type = Stem;
},
{
place = (341,69);
type = Stem;
}
);
layerId = "0245B36C-B88E-4C5F-8D6F-F0580B5CC529";
shapes = (
{
closed = 1;
nodes = (
(647,419,l),
(418,419,l),
(418,639,l),
(348,639,l),
(348,419,l),
(119,419,l),
(119,351,l),
(348,351,l),
(348,131,l),
(418,131,l),
(418,351,l),
(647,351,l)
);
},
{
closed = 1;
nodes = (
(647,68,l),
(119,68,l),
(119,0,l),
(647,0,l)
);
}
);
width = 766;
}
);
unicode = 177;
}
{
glyphname = periodcentered;
layers = (
{
hints = (
{
horizontal = 1;
place = (851,138);
type = Stem;
},
{
place = (45,137);
type = Stem;
}
);
layerId = "0245B36C-B88E-4C5F-8D6F-F0580B5CC529";
shapes = (
{
closed = 1;
nodes = (
(189,388,o),
(158,419,o),
(120,419,cs),
(82,419,o),
(53,388,o),
(53,352,cs),
(53,315,o),
(82,284,o),
(120,284,cs),
(158,284,o),
(189,315,o),
(189,352,cs)
);
}
);
width = 239;
}
);
unicode = 183;
}
{
glyphname = questiondown;
layers = (
{
hints = (
{
horizontal = 1;
place = (-199,43);
type = Stem;
},
{
horizontal = 1;
place = (413,134);
type = Stem;
},
{
place = (36,109);
type = Stem;
},
{
place = (176,96);
type = Stem;
},
{
place = (292,121);
type = Stem;
}
);
layerId = "0245B36C-B88E-4C5F-8D6F-F0580B5CC529";
shapes = (
{
closed = 1;
nodes = (
(311,517,o),
(282,547,o),
(244,547,cs),
(206,547,o),
(175,517,o),
(175,480,cs),
(175,444,o),
(206,414,o),
(244,414,cs),
(282,414,o),
(311,444,o),
(311,480,cs)
);
},
{
closed = 1;
nodes = (
(409,-44,o),
(385,-16,o),
(346,-16,cs),
(315,-16,o),
(289,-36,o),
(289,-74,cs),
(289,-85,o),
(292,-102,o),
(316,-121,c),
(301,-147,o),
(267,-159,o),
(240,-159,cs),
(190,-159,o),
(142,-137,o),
(142,-48,cs),
(142,9,o),
(168,37,o),
(212,115,cs),
(257,195,o),
(270,271,o),
(268,331,c),
(268,336,o),
(257,344,o),
(243,344,cs),
(230,344,o),
(220,336,o),
(220,331,c),
(216,249,o),
(203,194,o),
(121,106,cs),
(67,49,o),
(32,13,o),
(32,-50,cs),
(32,-138,o),
(107,-199,o),
(221,-199,cs),
(346,-199,o),
(409,-134,o),
(409,-77,cs)
);
}
);
width = 449;
}
);
unicode = 191;
}
{
glyphname = multiply;
layers = (
{
layerId = "0245B36C-B88E-4C5F-8D6F-F0580B5CC529";
shapes = (
{
closed = 1;
nodes = (
(430,293,l),
(623,484,l),
(574,532,l),
(383,340,l),
(193,533,l),
(144,484,l),
(336,293,l),
(144,103,l),
(192,54,l),
(383,246,l),
(574,54,l),
(623,103,l)
);
}
);
width = 766;
}
);
unicode = 215;
}
{
glyphname = divide;
layers = (
{
hints = (
{
horizontal = 1;
place = (42,134);
type = Stem;
},
{
horizontal = 1;
place = (259,64);
type = Stem;
},
{
horizontal = 1;
place = (410,134);
type = Stem;
},
{
place = (320,136);
type = Stem;
}
);
layerId = "0245B36C-B88E-4C5F-8D6F-F0580B5CC529";
shapes = (
{
closed = 1;
nodes = (
(450,515,o),
(421,544,o),
(383,544,cs),
(345,544,o),
(316,515,o),
(316,477,cs),
(316,439,o),
(345,410,o),
(383,410,cs),
(421,410,o),
(450,439,o),
(450,477,cs)
);
},
{
closed = 1;
nodes = (
(647,327,l),
(119,327,l),
(119,259,l),
(647,259,l)
);
},
{
closed = 1;
nodes = (
(450,147,o),
(421,176,o),
(383,176,cs),
(345,176,o),
(316,147,o),
(316,109,cs),
(316,71,o),
(345,42,o),
(383,42,cs),
(421,42,o),
(450,71,o),
(450,109,cs)
);
}
);
width = 766;
}
);
unicode = 247;
}
{
glyphname = tilde;
layers = (
{
hints = (
{
horizontal = 1;
place = (512,64);
type = Stem;
},
{
place = (49,34);
type = Stem;
},
{
place = (349,34);
type = Stem;
}
);
layerId = "0245B36C-B88E-4C5F-8D6F-F0580B5CC529";
shapes = (
{
closed = 1;
nodes = (
(346,630,l),
(344,602,o),
(325,576,o),
(295,576,cs),
(275,576,o),
(254,590,o),
(225,605,cs),
(195,620,o),
(181,627,o),
(148,627,cs),
(89,627,o),
(45,574,o),
(45,509,c),
(78,509,l),
(80,537,o),
(99,563,o),
(129,563,cs),
(152,563,o),
(171,551,o),
(199,536,cs),
(235,517,o),
(250,512,o),
(276,512,cs),
(335,512,o),
(379,565,o),
(379,630,c)
);
}
);
width = 424;
}
);
unicode = 732;
}
{
glyphname = endash;
layers = (
{
hints = (
{
horizontal = 1;
place = (190,64);
type = Stem;
}
);
layerId = "0245B36C-B88E-4C5F-8D6F-F0580B5CC529";
shapes = (
{
closed = 1;
nodes = (
(535,256,l),
(51,256,l),
(51,190,l),
(535,190,l)
);
}
);
width = 586;
}
);
unicode = 8211;
}
{
glyphname = emdash;
layers = (
{
hints = (
{
horizontal = 1;
place = (190,64);
type = Stem;
}
);
layerId = "0245B36C-B88E-4C5F-8D6F-F0580B5CC529";
shapes = (
{
closed = 1;
nodes = (
(1099,256,l),
(51,256,l),
(51,190,l),
(1099,190,l)
);
}
);
width = 1150;
}
);
unicode = 8212;
}
{
glyphname = quoteleft;
layers = (
{
hints = (
{
horizontal = 1;
place = (474,120);
type = Stem;
},
{
place = (52,136);
type = Stem;
}
);
layerId = "0245B36C-B88E-4C5F-8D6F-F0580B5CC529";
shapes = (
{
closed = 1;
nodes = (
(182,741,l),
(87,693,o),
(48,617,o),
(48,555,cs),
(48,507,o),
(67,474,o),
(118,474,cs),
(152,474,o),
(183,496,o),
(183,537,cs),
(183,566,o),
(166,592,o),
(107,596,c),
(122,655,o),
(165,686,o),
(207,717,c)
);
}
);
width = 240;
}
);
unicode = 8216;
}
{
glyphname = quoteright;
layers = (
{
hints = (
{
horizontal = 1;
place = (620,120);
type = Stem;
},
{
place = (57,136);
type = Stem;
}
);
layerId = "0245B36C-B88E-4C5F-8D6F-F0580B5CC529";
shapes = (
{
closed = 1;
nodes = (
(189,707,o),
(170,740,o),
(119,740,cs),
(84,740,o),
(54,718,o),
(54,677,cs),
(54,648,o),
(70,622,o),
(130,618,c),
(115,559,o),
(72,528,o),
(29,497,c),
(55,473,l),
(150,521,o),
(189,597,o),
(189,659,cs)
);
}
);
width = 240;
}
);
unicode = 8217;
}
{
glyphname = quotesinglbase;
layers = (
{
hints = (
{
horizontal = 1;
place = (122,-20);
target = down;
type = TopGhost;
},
{
place = (61,137);
type = Stem;
}
);
layerId = "0245B36C-B88E-4C5F-8D6F-F0580B5CC529";
shapes = (
{
closed = 1;
nodes = (
(189,89,o),
(170,122,o),
(119,122,cs),
(84,122,o),
(54,100,o),
(54,59,cs),
(54,30,o),
(70,4,o),
(130,0,c),
(115,-59,o),
(72,-90,o),
(29,-121,c),
(55,-145,l),
(150,-97,o),
(189,-21,o),
(189,41,cs)
);
}
);
width = 240;
}
);
unicode = 8218;
}
{
glyphname = quotedblleft;
layers = (
{
hints = (
{
horizontal = 1;
place = (474,120);
type = Stem;
},
{
place = (52,136);
type = Stem;
},
{
place = (239,136);
type = Stem;
}
);
layerId = "0245B36C-B88E-4C5F-8D6F-F0580B5CC529";
shapes = (
{
closed = 1;
nodes = (
(370,741,l),
(275,693,o),
(236,617,o),
(236,555,cs),
(236,507,o),
(256,474,o),
(306,474,cs),
(341,474,o),
(371,496,o),
(371,537,cs),
(371,566,o),
(355,592,o),
(296,596,c),
(311,655,o),
(354,686,o),
(396,717,c)
);
},
{
closed = 1;
nodes = (
(182,741,l),
(87,693,o),
(48,617,o),
(48,555,cs),
(48,507,o),
(67,474,o),
(118,474,cs),
(152,474,o),
(183,496,o),
(183,537,cs),
(183,566,o),
(166,592,o),
(107,596,c),
(122,655,o),
(165,686,o),
(207,717,c)
);
}
);
width = 429;
}
);
unicode = 8220;
}
{
glyphname = quotedblright;
layers = (
{
hints = (
{
horizontal = 1;
place = (620,120);
type = Stem;
},
{
place = (58,136);
type = Stem;
},
{
place = (246,136);
type = Stem;
}
);
layerId = "0245B36C-B88E-4C5F-8D6F-F0580B5CC529";
shapes = (
{
closed = 1;
nodes = (
(378,707,o),
(358,740,o),
(308,740,cs),
(273,740,o),
(243,718,o),
(243,677,cs),
(243,648,o),
(259,622,o),
(318,618,c),
(303,559,o),
(260,528,o),
(218,497,c),
(244,473,l),
(339,521,o),
(378,597,o),
(378,659,cs)
);
},
{
closed = 1;
nodes = (
(189,707,o),
(170,740,o),
(119,740,cs),
(84,740,o),
(54,718,o),
(54,677,cs),
(54,648,o),
(70,622,o),
(130,618,c),
(115,559,o),
(72,528,o),
(29,497,c),
(55,473,l),
(150,521,o),
(189,597,o),
(189,659,cs)
);
}
);
width = 429;
}
);
unicode = 8221;
}
{
glyphname = quotedblbase;
layers = (
{
hints = (
{
horizontal = 1;
place = (122,-20);
target = down;
type = TopGhost;
},
{
place = (61,137);
type = Stem;
},
{
place = (246,137);
type = Stem;
}
);
layerId = "0245B36C-B88E-4C5F-8D6F-F0580B5CC529";
shapes = (
{
closed = 1;
nodes = (
(378,89,o),
(358,122,o),
(308,122,cs),
(273,122,o),
(243,100,o),
(243,59,cs),
(243,30,o),
(259,4,o),
(318,0,c),
(303,-59,o),
(260,-90,o),
(218,-121,c),
(244,-145,l),
(339,-97,o),
(378,-21,o),
(378,41,cs)
);
},
{
closed = 1;
nodes = (
(189,89,o),
(170,122,o),
(119,122,cs),
(84,122,o),
(54,100,o),
(54,59,cs),
(54,30,o),
(70,4,o),
(130,0,c),
(115,-59,o),
(72,-90,o),
(29,-121,c),
(55,-145,l),
(150,-97,o),
(189,-21,o),
(189,41,cs)
);
}
);
width = 429;
}
);
unicode = 8222;
}
{
glyphname = bullet;
layers = (
{
layerId = "0245B36C-B88E-4C5F-8D6F-F0580B5CC529";
shapes = (
{
closed = 1;
nodes = (
(401,456,o),
(314,544,o),
(208,544,cs),
(101,544,o),
(14,456,o),
(14,350,cs),
(14,244,o),
(101,156,o),
(208,156,cs),
(314,156,o),
(401,244,o),
(401,350,cs)
);
}
);
width = 415;
}
);
unicode = 8226;
}
{
glyphname = ellipsis;
layers = (
{
hints = (
{
horizontal = 1;
place = (-6,127);
type = Stem;
},
{
place = (108,128);
type = Stem;
},
{
place = (450,128);
type = Stem;
},
{
place = (792,128);
type = Stem;
}
);
layerId = "0245B36C-B88E-4C5F-8D6F-F0580B5CC529";
shapes = (
{
closed = 1;
nodes = (
(817,98,o),
(786,129,o),
(748,129,cs),
(710,129,o),
(681,98,o),
(681,62,cs),
(681,25,o),
(710,-6,o),
(748,-6,cs),
(786,-6,o),
(817,25,o),
(817,62,cs)
);
},
{
closed = 1;
nodes = (
(518,98,o),
(487,129,o),
(449,129,cs),
(411,129,o),
(382,98,o),
(382,62,cs),
(382,25,o),
(411,-6,o),
(449,-6,cs),
(487,-6,o),
(518,25,o),
(518,62,cs)
);
},
{
closed = 1;
nodes = (
(219,98,o),
(188,129,o),
(150,129,cs),
(112,129,o),
(83,98,o),
(83,62,cs),
(83,25,o),
(112,-6,o),
(150,-6,cs),
(188,-6,o),
(219,25,o),
(219,62,cs)
);
}
);
width = 897;
}
);
unicode = 8230;
}
{
glyphname = Euro;
layers = (
{
hints = (
{
horizontal = 1;
place = (-9,64);
type = Stem;
},
{
horizontal = 1;
place = (257,49);
type = Stem;
},
{
horizontal = 1;
place = (376,49);
type = Stem;
},
{
horizontal = 1;
place = (646,49);
type = Stem;
},
{
place = (103,109);
type = Stem;
},
{
place = (454,121);
type = Stem;
}
);
layerId = "0245B36C-B88E-4C5F-8D6F-F0580B5CC529";
shapes = (
{
closed = 1;
nodes = (
(569,152,l),
(520,82,o),
(456,51,o),
(387,51,cs),
(271,51,o),
(220,145,o),
(209,257,c),
(418,257,l),
(418,302,l),
(206,302,l),
(206,315,o),
(206,329,o),
(206,343,cs),
(206,356,o),
(206,367,o),
(207,380,c),
(452,380,l),
(452,425,l),
(211,425,l),
(228,556,o),
(285,646,o),
(391,646,cs),
(433,646,o),
(459,639,o),
(482,622,c),
(459,601,o),
(452,586,o),
(452,565,cs),
(452,528,o),
(483,513,o),
(512,513,cs),
(541,513,o),
(571,532,o),
(571,579,cs),
(571,644,o),
(499,695,o),
(394,695,cs),
(239,695,o),
(138,580,o),
(108,425,c),
(27,425,l),
(27,380,l),
(102,380,l),
(101,362,o),
(99,344,o),
(99,324,cs),
(99,317,o),
(99,309,o),
(99,302,c),
(27,302,l),
(27,257,l),
(103,257,l),
(120,108,o),
(210,-9,o),
(373,-9,cs),
(454,-9,o),
(559,39,o),
(601,122,c)
);
}
);
width = 611;
}
);
unicode = 8364;
}
{
glyphname = minus;
layers = (
{
hints = (
{
horizontal = 1;
place = (259,64);
type = Stem;
}
);
layerId = "0245B36C-B88E-4C5F-8D6F-F0580B5CC529";
shapes = (
{
closed = 1;
nodes = (
(647,327,l),
(119,327,l),
(119,259,l),
(647,259,l)
);
}
);
width = 766;
}
);
unicode = 8722;
}
